<?xml version="1.0" encoding="UTF-8" standalone="no"?>
<!-- Created with Inkscape (http://www.inkscape.org/) -->

<svg
   xmlns:dc="http://purl.org/dc/elements/1.1/"
   xmlns:cc="http://creativecommons.org/ns#"
   xmlns:rdf="http://www.w3.org/1999/02/22-rdf-syntax-ns#"
   xmlns:svg="http://www.w3.org/2000/svg"
   xmlns="http://www.w3.org/2000/svg"
   xmlns:sodipodi="http://sodipodi.sourceforge.net/DTD/sodipodi-0.dtd"
   xmlns:inkscape="http://www.inkscape.org/namespaces/inkscape"
   width="4.5in"
   height="4.5in"
   viewBox="0 0 405 405"
   id="svg2"
   version="1.1"
   inkscape:version="0.91 r13725"
   sodipodi:docname="Cryptoph-logo.svg"
   inkscape:export-filename="/media/aly/Data/Git/AlyShmahell-GraphicDesign/Cryptoph-logo.png"
   inkscape:export-xdpi="299"
   inkscape:export-ydpi="299">
  <defs
     id="defs4">
    <inkscape:path-effect
       effect="spiro"
       id="path-effect4283"
       is_visible="true" />
  </defs>
  <sodipodi:namedview
     id="base"
     pagecolor="#fafbfc"
     bordercolor="#666666"
     borderopacity="1.0"
     inkscape:pageopacity="1"
     inkscape:pageshadow="2"
     inkscape:zoom="0.2883988"
     inkscape:cx="202.60079"
     inkscape:cy="449.22761"
     inkscape:document-units="px"
     inkscape:current-layer="layer1"
     showgrid="true"
     inkscape:window-width="1301"
     inkscape:window-height="744"
     inkscape:window-x="65"
     inkscape:window-y="24"
     inkscape:window-maximized="1"
     showguides="true"
     inkscape:guide-bbox="true"
     units="in"
     width="16in">
    <inkscape:grid
       type="xygrid"
       id="grid3410" />
    <sodipodi:guide
       position="584.26041,1126.0449"
       orientation="0,1"
       id="guide4388" />
  </sodipodi:namedview>
  <metadata
     id="metadata7">
    <rdf:RDF>
      <cc:Work
         rdf:about="">
        <dc:format>image/svg+xml</dc:format>
        <dc:type
           rdf:resource="http://purl.org/dc/dcmitype/StillImage" />
        <dc:title></dc:title>
      </cc:Work>
    </rdf:RDF>
  </metadata>
  <g
     inkscape:groupmode="layer"
     id="layer1"
     inkscape:label="Layer 3"
     transform="translate(0,-647.36216)">
    <path
       style="fill:none;fill-rule:evenodd;stroke:#000000;stroke-width:1.3082974px;stroke-linecap:butt;stroke-linejoin:miter;stroke-opacity:1"
       d="m 160.26092,904.68214 c 0,0 -35.25778,-73.75792 44.52434,-245.38955 79.78212,171.63163 37.60838,243.90175 37.60838,243.90175"
       id="path4566"
       inkscape:connector-curvature="0"
       sodipodi:nodetypes="ccc"
       inkscape:export-filename="/home/aly/flowRoot3420-35-9-7-0-0.png"
       inkscape:export-xdpi="299"
       inkscape:export-ydpi="299" />
    <path
       style="fill:none;fill-rule:evenodd;stroke:#000000;stroke-width:0.78143972px;stroke-linecap:butt;stroke-linejoin:miter;stroke-opacity:1"
       d="m 175.7094,907.64323 c 0,0 -15.73334,-49.23107 24.8243,-169.68146 40.55764,120.45039 23.03752,166.56244 23.03752,166.56244"
       id="path4566-9"
       inkscape:connector-curvature="0"
       sodipodi:nodetypes="ccc"
       inkscape:export-filename="/home/aly/flowRoot3420-35-9-7-0-0.png"
       inkscape:export-xdpi="299"
       inkscape:export-ydpi="299" />
    <path
       style="fill:none;fill-rule:evenodd;stroke:#000000;stroke-width:0.51180261px;stroke-linecap:butt;stroke-linejoin:miter;stroke-opacity:1"
       d="m 186.55814,900.60898 c 0,0 -7.48314,-39.15637 13.46015,-139.21399 20.94327,100.05762 10.78016,153.59497 10.78016,153.59497"
       id="path4566-9-6"
       inkscape:connector-curvature="0"
       sodipodi:nodetypes="ccc"
       inkscape:export-filename="/home/aly/flowRoot3420-35-9-7-0-0.png"
       inkscape:export-xdpi="299"
       inkscape:export-ydpi="299" />
    <path
       style="fill:#00aad4;fill-opacity:1;stroke:#e50000;stroke-width:0.00567053;stroke-miterlimit:4;stroke-dasharray:none;stroke-opacity:1"
       d="m 199.41047,907.64053 c -1.18868,-0.95735 -4.03843,-4.29728 -6.33277,-7.42208 -2.29433,-3.12479 -4.65166,-5.99559 -5.23847,-6.37956 -1.43116,-0.93644 -1.60236,-2.55486 -1.90269,-17.98581 -0.55469,-28.50076 3.09378,-62.42684 11.35629,-105.59846 1.32782,-6.93785 2.55593,-12.61429 2.72914,-12.61429 0.32531,0 3.9422,19.0755 5.85358,30.87181 2.66321,16.43627 4.89383,36.27156 6.10948,54.32716 1.2335,18.32074 0.8962,44.44956 -0.76669,59.3908 -0.45663,4.10292 -0.59202,4.44787 -2.2566,5.74887 -2.59216,2.02601 -6.80065,1.87689 -9.55127,-0.33844 z"
       id="path4604"
       inkscape:connector-curvature="0"
       inkscape:export-filename="/home/aly/flowRoot3420-35-9-7-0-0.png"
       inkscape:export-xdpi="299"
       inkscape:export-ydpi="299" />
    <path
       style="fill:#ff2a7f;fill-opacity:1;stroke:#e50000;stroke-width:0.00567053;stroke-miterlimit:4;stroke-dasharray:none;stroke-opacity:1"
       d="m 211.87643,910.60309 c 1.25952,-10.24754 1.65758,-20.86399 1.45873,-38.90647 -0.27806,-25.2296 -1.72804,-42.86389 -5.77702,-70.25863 -2.09121,-14.14877 -6.84169,-40.25481 -7.44114,-40.89241 -0.43856,-0.46646 -4.91479,22.37878 -7.63517,38.96745 -5.04371,30.75615 -7.1955,53.08219 -7.2797,75.53112 -0.0307,8.18289 0.0928,17.09287 0.27449,19.79995 l 0.33031,4.92195 -1.64959,0.38078 c -0.90727,0.20944 -3.1551,1.57789 -4.99516,3.04102 l -3.34557,2.66024 -0.4525,-2.01178 c -2.05861,-9.15264 -2.59964,-33.16363 -1.1013,-48.87742 2.92604,-30.687 10.59642,-66.034 22.43846,-103.40195 4.24262,-13.38768 3.5365,-12.7892 6.03918,-5.11852 11.9673,36.67966 20.2291,73.92589 23.08147,104.05707 1.08412,11.45212 1.10083,31.2186 0.0336,39.7986 -1.16193,9.34176 -2.58446,14.34947 -4.53795,15.97497 -2.81458,2.34202 -7.17474,5.39089 -8.454,5.91151 -1.18067,0.4805 -1.23037,0.40107 -0.98719,-1.57748 l 2e-5,0 z"
       id="path4606"
       inkscape:connector-curvature="0"
       inkscape:export-filename="/home/aly/flowRoot3420-35-9-7-0-0.png"
       inkscape:export-xdpi="299"
       inkscape:export-ydpi="299" />
    <path
       style="fill:#672178;fill-opacity:1;stroke:#e50000;stroke-width:0.00567053;stroke-miterlimit:4;stroke-dasharray:none;stroke-opacity:1"
       d="m 161.15659,906.87123 c -1.78302,-1.04657 -3.3083,-1.9993 -3.38953,-2.11716 -0.0813,-0.11791 0.0412,-0.79508 0.27199,-1.50492 0.38553,-1.18561 0.46031,-1.15988 0.91932,0.31617 0.49959,1.60656 1.76598,2.24384 1.76598,0.88867 0,-0.39492 -0.57278,-2.27245 -1.27286,-4.17224 -1.56973,-4.25987 -3.70463,-14.22758 -4.84776,-22.63394 -1.25856,-9.25519 -1.56766,-31.50416 -0.60458,-43.5181 3.4269,-42.74905 16.19245,-91.1607 37.68388,-142.91126 5.75918,-13.86791 12.69504,-29.30133 13.16816,-29.30133 0.56638,0 11.56699,25.52986 16.74132,38.85275 17.05598,43.91573 26.55115,81.21794 30.19192,118.61028 1.18854,12.20689 1.08027,35.87115 -0.21124,46.16715 -1.60854,12.82351 -4.73441,25.72262 -8.03887,33.17298 -1.78331,4.02072 -1.92634,5.15157 -0.61021,4.82477 0.72287,-0.17949 1.01627,0.26927 1.28245,1.96156 0.18983,1.20688 0.28364,2.30017 0.20846,2.42956 -0.0752,0.12941 -1.08993,-1.06322 -2.25501,-2.65026 -3.58661,-4.88562 -4.77343,-5.67983 -8.38589,-5.61181 -2.34431,0.0441 -4.04965,0.58216 -6.15952,1.94327 -1.60472,1.03523 -2.91757,1.67272 -2.91745,1.41664 1.2e-4,-0.25607 0.3883,-2.22283 0.86261,-4.37056 1.29337,-5.85636 2.15922,-16.57052 2.16116,-26.74277 0.005,-23.87854 -3.96057,-51.89794 -11.87484,-83.9127 -4.01139,-16.22683 -14.45052,-50.95707 -15.31654,-50.95707 -1.08212,0 -13.60242,42.92727 -17.68288,60.62776 -7.01356,30.42385 -9.97619,52.30433 -10.32424,76.24964 -0.18667,12.84198 -0.10431,15.39465 0.71793,22.25247 0.51084,4.26055 1.11558,8.34708 1.34386,9.08118 0.35947,1.15596 0.11433,1.48846 -1.83001,2.48218 -3.35359,1.71396 -7.75478,1.38271 -11.59761,-0.87291 z"
       id="path4608"
       inkscape:connector-curvature="0"
       inkscape:export-filename="/home/aly/flowRoot3420-35-9-7-0-0.png"
       inkscape:export-xdpi="299"
       inkscape:export-ydpi="299" />
    <path
       style="fill:#c83737;fill-opacity:1;fill-rule:evenodd;stroke:#000000;stroke-width:1px;stroke-linecap:butt;stroke-linejoin:miter;stroke-opacity:1"
       d="M 205.17237,1025.275 99.131347,975.3477 65.323987,947.60834 27.182357,833.18345 160.67806,673.68209 99.131347,903.39872 l 74.759873,2.75832 c 17.67224,-13.53653 19.79886,3.34168 32.68659,6.76497 18.46953,-15.07132 36.57491,-13.19939 32.06463,-8.91033 l 71.13471,-0.61296 -62.41358,-228.84977 132.62888,160.36821 -35.54109,111.82432 -34.67421,28.60622 z"
       id="path3408"
       inkscape:connector-curvature="0"
       sodipodi:nodetypes="ccccccccccccccc"
       inkscape:export-filename="/home/aly/flowRoot3420-35-9-7-0-0.png"
       inkscape:export-xdpi="299"
       inkscape:export-ydpi="299" />
    <path
       inkscape:export-filename="/home/aly/flowRoot3420-35-9-7-0-0.png"
       inkscape:export-xdpi="299"
       inkscape:export-ydpi="299"
       style="fill:#00aad4;fill-opacity:1;stroke:#e50000;stroke-width:0.0030648;stroke-miterlimit:4;stroke-dasharray:none;stroke-opacity:1"
       d="m 195.85105,905.35988 c -3.81872,-3.20217 -5.90164,-4.63681 -7.81523,-5.38285 -1.14033,-0.44457 -1.24067,-0.58197 -1.43719,-1.96812 -0.4209,-2.96876 -0.86027,-10.97365 -0.81067,-14.7698 l 0.0507,-3.88323 0.20768,5.36339 c 0.28758,7.42652 0.33944,7.64345 2.36838,9.90692 0.93305,1.0409 2.93815,3.53284 4.45577,5.53764 1.51763,2.0048 3.72308,4.65968 4.90101,5.89973 1.17792,1.24005 2.02071,2.25399 1.87286,2.25321 -0.14785,-7.9e-4 -1.85485,-1.33139 -3.79334,-2.95689 z"
       id="path4021"
       inkscape:connector-curvature="0" />
    <path
       inkscape:export-filename="/home/aly/flowRoot3420-35-9-7-0-0.png"
       inkscape:export-xdpi="299"
       inkscape:export-ydpi="299"
       style="fill:#00aad4;fill-opacity:1;stroke:#e50000;stroke-width:0.0030648;stroke-miterlimit:4;stroke-dasharray:none;stroke-opacity:1"
       d="m 202.74684,910.19009 c -1.01138,-0.48727 -2.11471,-1.11904 -2.45183,-1.40394 -0.69291,-0.58556 -0.76892,-0.60026 1.68563,0.32619 1.39584,0.52685 3.52117,0.51522 5.04518,-0.0276 0.66781,-0.23785 1.25026,-0.39639 1.29433,-0.35232 0.15792,0.15792 -2.96053,2.34408 -3.34337,2.34384 -0.21508,-1.3e-4 -1.21855,-0.39891 -2.22994,-0.88618 z"
       id="path4025"
       inkscape:connector-curvature="0" />
    <path
       inkscape:export-filename="/home/aly/flowRoot3420-35-9-7-0-0.png"
       inkscape:export-xdpi="299"
       inkscape:export-ydpi="299"
       style="fill:#00aad4;fill-opacity:1;stroke:#e50000;stroke-width:0.0030648;stroke-miterlimit:4;stroke-dasharray:none;stroke-opacity:1"
       d="m 210.22546,906.86242 c 0.33238,-0.46599 0.74286,-1.80202 0.91806,-2.98818 0.30273,-2.04948 1.13767,-12.77106 1.37236,-17.62257 0.0612,-1.26423 0.0582,0.39076 -0.007,3.67775 -0.0648,3.287 -0.31406,8.38291 -0.55399,11.32426 -0.40498,4.96472 -0.48699,5.38695 -1.1446,5.89292 -1.03322,0.79495 -1.27222,0.67891 -0.58526,-0.28418 z"
       id="path4027"
       inkscape:connector-curvature="0" />
    <path
       inkscape:export-filename="/home/aly/flowRoot3420-35-9-7-0-0.png"
       inkscape:export-xdpi="299"
       inkscape:export-ydpi="299"
       style="fill:#00aad4;fill-opacity:1;stroke:#e50000;stroke-width:0.0030648;stroke-miterlimit:4;stroke-dasharray:none;stroke-opacity:1"
       d="m 202.28514,908.95128 c -2.46616,-0.75017 -4.08916,-2.34693 -9.57356,-9.4188 -1.9391,-2.50038 -3.90562,-4.89093 -4.37005,-5.31234 -1.49035,-1.35229 -1.68674,-2.3068 -2.03764,-9.90348 -0.36196,-7.83592 -0.16416,-28.05177 0.34391,-35.14902 1.29662,-18.1126 2.79477,-30.37665 6.27098,-51.33534 2.15572,-12.99715 5.88384,-32.42671 6.88041,-35.85811 0.36696,-1.26348 0.44723,-0.99799 1.85331,6.12959 5.06463,25.67313 8.35706,49.36344 9.98825,71.86947 1.33153,18.3715 1.18806,44.03224 -0.33415,59.76352 -0.53813,5.56137 -0.80046,6.70696 -1.73714,7.58631 -1.68853,1.58516 -4.99568,2.32437 -7.28432,1.6282 z"
       id="path4037"
       inkscape:connector-curvature="0" />
    <path
       inkscape:export-filename="/home/aly/flowRoot3420-35-9-7-0-0.png"
       inkscape:export-xdpi="299"
       inkscape:export-ydpi="299"
       style="fill:#00aad4;fill-opacity:1;stroke:#e50000;stroke-width:0.0030648;stroke-miterlimit:4;stroke-dasharray:none;stroke-opacity:1"
       d="m 201.21445,908.50342 c -1.91962,-0.91224 -3.75676,-2.82576 -8.12248,-8.46017 -1.89383,-2.44418 -3.97059,-4.99562 -4.61503,-5.66987 -0.64444,-0.67426 -1.32621,-1.63672 -1.51505,-2.13881 -0.83238,-2.2132 -1.2078,-25.14553 -0.61022,-37.27551 0.79337,-16.1043 2.20216,-29.40397 5.07731,-47.93237 3.09462,-19.94274 8.13175,-46.23506 8.73608,-45.59978 0.41007,0.43106 3.17404,15.00894 5.63619,29.7266 4.11805,24.61598 6.25005,46.6873 6.75851,69.96683 0.36067,16.51328 -0.97168,42.8692 -2.29184,45.33594 -0.43822,0.81883 -2.07082,2.00336 -3.35272,2.43255 -1.71856,0.5754 -4.00409,0.42088 -5.70075,-0.38541 z"
       id="path4039"
       inkscape:connector-curvature="0" />
    <path
       inkscape:export-filename="/home/aly/flowRoot3420-35-9-7-0-0.png"
       inkscape:export-xdpi="299"
       inkscape:export-ydpi="299"
       style="fill:#00aad4;fill-opacity:1;stroke:#e50000;stroke-width:0.0030648;stroke-miterlimit:4;stroke-dasharray:none;stroke-opacity:1"
       d="m 201.21445,908.53551 c -1.87707,-0.90017 -3.99894,-3.14016 -8.92643,-9.42338 -2.04395,-2.60631 -4.09655,-5.08354 -4.56134,-5.50495 -1.03552,-0.9389 7.42551,9.75417 9.14952,11.56318 0.67937,0.71286 1.16926,1.36207 1.08864,1.44269 -0.0806,0.0806 -1.41654,-0.86742 -2.96872,-2.10676 -3.02174,-2.41272 -5.05444,-3.78655 -6.86212,-4.63786 -1.33386,-0.62818 -1.41778,-0.88903 -1.63181,-5.07217 -0.11725,-2.29157 -0.0742,-3.00978 0.1538,-2.56824 0.26544,0.51394 0.28778,0.46752 0.13834,-0.28741 -0.71521,-3.61301 -0.99096,-26.94251 -0.44216,-37.40958 0.95993,-18.30873 2.64294,-33.07541 6.30495,-55.31957 1.6289,-9.89442 4.97261,-27.84172 6.2689,-33.64818 0.5001,-2.2401 0.90927,-4.16403 0.90927,-4.27539 0,-0.11137 0.12811,-0.0715 0.28469,0.0887 0.46961,0.48028 2.98592,13.63236 5.53826,28.94699 4.08844,24.53157 5.99536,43.02382 6.79488,65.89312 0.2914,8.33519 0.27701,12.66028 -0.0765,22.98597 -0.23948,6.99539 -0.42303,14.44285 -0.40789,16.54989 0.02,2.78972 -0.0354,3.41449 -0.20405,2.2986 -0.15702,-1.03899 -0.18944,-0.54558 -0.10069,1.5324 0.15638,3.66181 -0.25355,6.80442 -0.97592,7.48151 -0.47907,0.44904 -0.5015,0.43922 -0.28801,-0.126 0.51447,-1.36205 0.49395,-1.77583 -0.0384,-0.77401 -0.31121,0.58567 -1.1435,1.46782 -1.84953,1.96032 -1.06598,0.74358 -1.66372,0.91661 -3.52451,1.02024 -1.89586,0.10558 -2.47673,0.0116 -3.77322,-0.61008 z m 10.2308,-6.78108 c 0.0536,-2.22847 -0.16522,-1.59245 -0.3603,1.04714 -0.10367,1.40266 -0.0736,1.94022 0.0771,1.37915 0.13583,-0.50569 0.26328,-1.59752 0.28322,-2.42629 z"
       id="path4041"
       inkscape:connector-curvature="0" />
    <path
       inkscape:export-filename="/home/aly/flowRoot3420-35-9-7-0-0.png"
       inkscape:export-xdpi="299"
       inkscape:export-ydpi="299"
       style="fill:#00aad4;fill-opacity:1;stroke:#e50000;stroke-width:0.0030648;stroke-miterlimit:4;stroke-dasharray:none;stroke-opacity:1"
       d="m 201.21445,908.51614 c -1.82364,-0.85149 -3.98511,-3.09383 -8.32306,-8.63444 -2.65752,-3.39429 -5.86896,-7.17436 -4.82706,-5.68174 0.92278,1.32195 8.0176,10.12977 8.96089,11.12443 0.59653,0.62903 1.02393,1.20435 0.94977,1.27851 -0.0742,0.0741 -1.72018,-1.09791 -3.65784,-2.6046 -1.93766,-1.50668 -4.37818,-3.18332 -5.42339,-3.72586 -1.32764,-0.68914 -1.96654,-1.21871 -2.11989,-1.75711 -0.24435,-0.85784 -0.3027,-3.04831 -0.60427,-22.68397 -0.3234,-21.05657 0.69204,-37.0229 3.73265,-58.69084 3.05673,-21.78287 9.45785,-56.53031 10.26519,-55.72296 0.33767,0.33766 1.92562,8.33262 4.09771,20.63105 6.60826,37.41596 9.03457,66.06071 8.20251,96.83779 -0.19382,7.16933 -0.27733,13.44889 -0.18556,13.95458 0.13304,0.73317 0.0959,0.8263 -0.18315,0.45972 -0.26638,-0.34989 -0.31421,0.34571 -0.2002,2.91155 0.0941,2.11783 0.0553,2.97245 -0.10441,2.2986 -0.16899,-0.71309 -0.20342,-0.19938 -0.10271,1.5324 0.17763,3.05464 -0.29211,6.35211 -1.00152,7.03039 -0.45684,0.4368 -0.48344,0.42191 -0.30616,-0.17139 0.15091,-0.50504 -0.08,-0.389 -1.03663,0.52107 -2.05463,1.95452 -5.34148,2.39618 -8.13287,1.09282 z m 9.86346,-4.8526 c -0.0978,-0.24449 -0.17046,-0.17187 -0.18516,0.18516 -0.0133,0.32308 0.0591,0.5041 0.16097,0.40226 0.10184,-0.10184 0.11273,-0.36618 0.0242,-0.58742 z m 0.31341,-2.47099 c -0.0731,-0.37927 -0.13281,-0.069 -0.13281,0.68958 0,0.75853 0.0598,1.06884 0.13281,0.68958 0.0731,-0.37927 0.0731,-0.99989 0,-1.37916 z"
       id="path4043"
       inkscape:connector-curvature="0" />
    <path
       inkscape:export-filename="/home/aly/flowRoot3420-35-9-7-0-0.png"
       inkscape:export-xdpi="299"
       inkscape:export-ydpi="299"
       style="fill:#00aad4;fill-opacity:1;stroke:#e50000;stroke-width:0.0030648;stroke-miterlimit:4;stroke-dasharray:none;stroke-opacity:1"
       d="m 201.36768,908.60283 c -0.75853,-0.34174 -2.27393,-1.47651 -3.36755,-2.52172 -1.09363,-1.04521 -1.5168,-1.38527 -0.94039,-0.75568 0.57641,0.62959 0.98044,1.21228 0.89785,1.29487 -0.0826,0.0826 -1.29763,-0.75718 -2.70008,-1.86615 -2.77956,-2.1979 -6.75925,-4.87794 -7.67507,-5.16861 -0.31718,-0.10067 -0.65615,-0.55605 -0.75326,-1.01196 -0.89293,-4.19216 -0.94354,-41.38934 -0.0714,-52.47074 1.3221,-16.79834 2.90034,-29.15865 6.35286,-49.7538 1.62028,-9.66544 4.62855,-25.68466 5.79254,-30.8457 0.51265,-2.27306 0.9321,-4.19698 0.9321,-4.27539 0,-0.0784 0.13525,-0.007 0.30056,0.15801 0.58126,0.58126 4.51902,21.81069 6.8832,37.10897 4.25788,27.5522 6.02089,52.02182 5.49474,76.26375 -0.14634,6.74255 -0.25743,13.74178 -0.24685,15.55384 0.0106,1.81206 -0.0584,3.29468 -0.15324,3.29471 -0.0949,3e-5 -0.19385,2.03429 -0.21998,4.52057 -0.0531,5.0513 -0.47016,8.23434 -1.17072,8.93489 -0.33347,0.33348 -0.46741,0.35664 -0.46741,0.0808 0,-0.21457 -0.51976,0.0311 -1.16806,0.55209 -2.07354,1.66634 -5.21535,2.03556 -7.71985,0.90723 z m -8.59717,-8.85875 c -1.86472,-2.35587 -3.53829,-4.3748 -3.71906,-4.48653 -0.18077,-0.11172 0.7485,1.16071 2.06504,2.82763 3.19659,4.0473 4.76495,5.9423 4.91803,5.9423 0.0695,0 -1.39929,-1.92753 -3.26401,-4.2834 z m 18.6075,1.75495 c -0.085,-0.21071 -0.15459,-0.0383 -0.15459,0.3831 0,0.42141 0.0696,0.5938 0.15459,0.3831 0.085,-0.21071 0.085,-0.5555 0,-0.7662 z m -24.82485,-11.03327 c -0.085,-0.2107 -0.15458,-0.0383 -0.15458,0.3831 0,0.42141 0.0696,0.59381 0.15458,0.3831 0.085,-0.2107 0.085,-0.55549 0,-0.7662 z"
       id="path4045"
       inkscape:connector-curvature="0" />
    <path
       inkscape:export-filename="/home/aly/flowRoot3420-35-9-7-0-0.png"
       inkscape:export-xdpi="299"
       inkscape:export-ydpi="299"
       style="fill:#00aad4;fill-opacity:1;stroke:#e50000;stroke-width:0.0030648;stroke-miterlimit:4;stroke-dasharray:none;stroke-opacity:1"
       d="m 202.62568,909.9943 c -1.66677,-0.77589 -2.05274,-1.35013 -0.51435,-0.76524 0.45576,0.17328 1.61269,0.29483 2.57096,0.27011 l 1.74231,-0.0449 -2.14536,-0.20569 c -2.54977,-0.24447 -3.77059,-0.81681 -5.81365,-2.72556 -0.83762,-0.78255 -1.2637,-1.11166 -0.94686,-0.73136 1.12615,1.35169 0.27985,0.91261 -2.89457,-1.50177 -1.76938,-1.34574 -4.18247,-3.01591 -5.36242,-3.71148 -1.17995,-0.69556 -2.20757,-1.31214 -2.28361,-1.37016 -0.4255,-0.3247 -0.62259,-5.33464 -0.80509,-20.46529 -0.30102,-24.95557 0.48268,-38.27436 3.57068,-60.68296 2.99489,-21.73298 9.56854,-57.51638 10.40715,-56.65096 0.77286,0.79755 5.84327,29.23002 8.08043,45.31121 3.80895,27.37956 4.82837,47.4715 4.09743,80.75738 -0.33762,15.37463 -0.80972,19.95028 -2.03121,19.68657 -0.20727,-0.0448 -0.82281,0.25877 -1.36785,0.6745 -0.54505,0.41572 -1.33166,0.89182 -1.74803,1.05799 -0.64181,0.25614 -0.66458,0.30509 -0.14956,0.32156 0.47744,0.0153 0.36611,0.18345 -0.52008,0.78563 -1.40188,0.9526 -1.82168,0.95157 -3.88632,-0.01 z m -6.77463,-6.38901 c 0,-0.0636 -0.24135,-0.30499 -0.53634,-0.53634 -0.48609,-0.38122 -0.49693,-0.37038 -0.11571,0.11571 0.40038,0.51052 0.65205,0.67287 0.65205,0.42063 z m -1.22592,-1.5324 c 0,-0.0636 -0.24135,-0.30499 -0.53634,-0.53634 -0.48609,-0.38122 -0.49693,-0.37038 -0.11571,0.11572 0.40038,0.51052 0.65205,0.67287 0.65205,0.42062 z m -0.91943,-1.21594 c 0,-0.0582 -0.31032,-0.36847 -0.68958,-0.68958 l -0.68958,-0.58384 0.58384,0.68958 c 0.54866,0.64803 0.79532,0.8291 0.79532,0.58384 z m -1.22592,-1.5324 c 0,-0.0582 -0.31031,-0.36847 -0.68958,-0.68958 l -0.68958,-0.58384 0.58384,0.68958 c 0.54866,0.64803 0.79532,0.8291 0.79532,0.58384 z m -1.22592,-1.5324 c 0,-0.0581 -0.31031,-0.36847 -0.68958,-0.68958 l -0.68958,-0.58384 0.58384,0.68958 c 0.54867,0.64804 0.79532,0.8291 0.79532,0.58384 z m -1.22592,-1.54237 c 0,-0.0636 -0.24135,-0.30499 -0.53634,-0.53634 -0.48609,-0.38122 -0.49693,-0.37038 -0.11571,0.11571 0.40037,0.51052 0.65205,0.67287 0.65205,0.42063 z"
       id="path4047"
       inkscape:connector-curvature="0" />
    <path
       inkscape:export-filename="/home/aly/flowRoot3420-35-9-7-0-0.png"
       inkscape:export-xdpi="299"
       inkscape:export-ydpi="299"
       style="fill:#00aad4;fill-opacity:1;stroke:#e50000;stroke-width:0.0030648;stroke-miterlimit:4;stroke-dasharray:none;stroke-opacity:1"
       d="m 202.62568,909.9943 c -1.66677,-0.77589 -2.05274,-1.35013 -0.51435,-0.76524 0.45576,0.17328 1.54374,0.29548 2.41772,0.27155 l 1.58907,-0.0435 -1.99212,-0.22187 c -2.58631,-0.28806 -3.38011,-0.63004 -5.06285,-2.18114 -0.77369,-0.71316 -1.29511,-1.0343 -1.17619,-0.7244 0.26518,0.69104 0.36924,0.75623 -3.86698,-2.42276 -1.90046,-1.42616 -4.25761,-3.0206 -5.23811,-3.54321 -0.98051,-0.5226 -1.85668,-1.18776 -1.94706,-1.47814 -0.89248,-2.86753 -0.94837,-42.67097 -0.075,-53.39569 0.96115,-11.80222 1.71289,-18.59363 3.29066,-29.72852 3.07882,-21.7283 9.29709,-55.17094 10.10602,-54.3514 0.56185,0.56923 4.58929,22.14135 6.73956,36.09903 4.7835,31.05031 6.21847,52.87354 5.54298,84.29872 -0.48139,22.39511 -0.73751,25.24701 -2.28696,25.46534 -0.30977,0.0437 -0.79658,0.29055 -1.0818,0.54867 -0.28521,0.25812 -0.99717,0.67689 -1.58213,0.93062 -0.72879,0.3161 -0.87235,0.46508 -0.45608,0.4733 0.47355,0.009 0.35889,0.18093 -0.52008,0.7782 -1.40188,0.9526 -1.82168,0.95157 -3.88632,-0.01 z m -8.91998,-9.14733 c 0,-0.0636 -0.24136,-0.30499 -0.53634,-0.53634 -0.4861,-0.38122 -0.49694,-0.37038 -0.11572,0.11572 0.40038,0.51052 0.65206,0.67287 0.65206,0.42062 z m -1.22592,-1.53239 c 0,-0.0636 -0.24136,-0.305 -0.53634,-0.53634 -0.4861,-0.38122 -0.49694,-0.37038 -0.11572,0.11571 0.40038,0.51052 0.65206,0.67287 0.65206,0.42063 z m -1.22592,-1.5324 c 0,-0.0636 -0.24135,-0.305 -0.53634,-0.53634 -0.48609,-0.38122 -0.49693,-0.37038 -0.11571,0.11571 0.40037,0.51052 0.65205,0.67287 0.65205,0.42063 z"
       id="path4049"
       inkscape:connector-curvature="0" />
    <path
       inkscape:export-filename="/home/aly/flowRoot3420-35-9-7-0-0.png"
       inkscape:export-xdpi="299"
       inkscape:export-ydpi="299"
       style="fill:#00aad4;fill-opacity:1;stroke:#e50000;stroke-width:0.0030648;stroke-miterlimit:4;stroke-dasharray:none;stroke-opacity:1"
       d="m 202.51698,909.98369 c -1.65052,-0.85918 -1.8399,-1.13798 -0.61296,-0.90236 0.69199,0.13288 0.65837,0.0904 -0.18784,-0.23723 -0.56687,-0.21948 -1.567,-0.84934 -2.22252,-1.39968 -0.65551,-0.55033 -1.30647,-0.92977 -1.44656,-0.84319 -0.14009,0.0866 -1.89828,-1.07577 -3.90708,-2.583 -2.0088,-1.50723 -4.43728,-3.15989 -5.39663,-3.67256 -0.95934,-0.51268 -1.8182,-1.16972 -1.90858,-1.4601 -0.79483,-2.55379 -0.96431,-42.327 -0.22099,-51.86329 0.57443,-7.36965 1.51438,-16.71795 2.35739,-23.44569 2.64885,-21.13928 10.22281,-63.13246 11.20883,-62.14644 0.91644,0.91645 6.68737,34.14336 8.82423,50.8067 3.13895,24.47776 4.02307,42.39778 3.44001,69.7241 -0.45622,21.38118 -0.73776,24.88753 -2.03085,25.29242 -1.30363,0.40819 -3.86356,1.97212 -3.23971,1.97922 0.24345,0.003 -0.0247,0.34984 -0.59588,0.77125 -1.29102,0.95248 -2.20106,0.94796 -4.06086,-0.0201 l 0,-10e-6 z m 2.2986,-0.65587 c -0.37927,-0.0731 -0.99989,-0.0731 -1.37916,0 -0.37927,0.073 -0.069,0.13282 0.68958,0.13282 0.75854,0 1.06885,-0.0598 0.68958,-0.13282 z"
       id="path4051"
       inkscape:connector-curvature="0" />
    <path
       inkscape:export-filename="/home/aly/flowRoot3420-35-9-7-0-0.png"
       inkscape:export-xdpi="299"
       inkscape:export-ydpi="299"
       style="fill:#00aad4;fill-opacity:1;stroke:#e50000;stroke-width:0.0030648;stroke-miterlimit:4;stroke-dasharray:none;stroke-opacity:1"
       d="m 202.68243,910.06661 c -0.70968,-0.37165 -1.2887,-0.789 -1.28671,-0.92744 0.005,-0.32417 -2.4324,-2.09416 -2.99762,-2.17712 -0.23678,-0.0348 -2.11349,-1.31326 -4.17047,-2.84113 -2.05698,-1.52787 -4.5206,-3.21448 -5.4747,-3.74801 -0.95411,-0.53354 -1.81703,-1.18452 -1.91761,-1.44662 -0.72416,-1.88713 -1.07495,-33.84147 -0.50251,-45.77442 0.95183,-19.84167 3.73429,-41.13763 9.38133,-71.8014 1.50025,-8.14649 3.53035,-18.09604 4.0067,-19.63699 0.46185,-1.49403 1.11038,1.05679 3.30187,12.98701 7.98378,43.46291 10.24572,69.24953 9.42203,107.4137 -0.35804,16.58937 -0.66056,22.5741 -1.21714,24.07868 -0.15647,0.42297 -1.00559,1.11644 -2.07424,1.694 -0.99513,0.53783 -1.80932,1.13294 -1.80932,1.32247 0,0.52563 -1.74118,1.55816 -2.60508,1.54483 -0.42141,-0.006 -1.34685,-0.31591 -2.05653,-0.68756 z m 1.82667,-0.72547 c -0.2107,-0.085 -0.55549,-0.085 -0.7662,0 -0.2107,0.085 -0.0383,0.15459 0.3831,0.15459 0.42141,0 0.59381,-0.0696 0.3831,-0.15459 z"
       id="path4053"
       inkscape:connector-curvature="0" />
  </g>
</svg>
