<?xml version="1.0" encoding="UTF-8" standalone="no"?>
<!-- Created with Inkscape (http://www.inkscape.org/) -->

<svg
   xmlns:dc="http://purl.org/dc/elements/1.1/"
   xmlns:cc="http://creativecommons.org/ns#"
   xmlns:rdf="http://www.w3.org/1999/02/22-rdf-syntax-ns#"
   xmlns:svg="http://www.w3.org/2000/svg"
   xmlns="http://www.w3.org/2000/svg"
   xmlns:sodipodi="http://sodipodi.sourceforge.net/DTD/sodipodi-0.dtd"
   xmlns:inkscape="http://www.inkscape.org/namespaces/inkscape"
   width="100mm"
   height="100mm"
   viewBox="0 0 100 100"
   version="1.1"
   id="svg8"
   inkscape:version="0.92.3 (2405546, 2018-03-11)"
   sodipodi:docname="Deprecode.svg"
   inkscape:export-filename="C:\Users\aly\Deprecode.png"
   inkscape:export-xdpi="600"
   inkscape:export-ydpi="600">
  <defs
     id="defs2">
    <clipPath
       clipPathUnits="userSpaceOnUse"
       id="clipPath5006">
      <g
         id="g5012"
         style="stroke-width:0.99999994">
        <ellipse
           ry="26.593319"
           rx="18.174328"
           cy="163.01863"
           cx="293.72128"
           id="ellipse5008"
           style="fill:#961c25;fill-opacity:1;fill-rule:evenodd;stroke:#00ccff;stroke-width:0;stroke-linejoin:round;stroke-miterlimit:4;stroke-dasharray:none;stroke-opacity:1" />
        <rect
           y="193.01434"
           x="247.70648"
           height="116.79678"
           width="92.475258"
           id="rect5010"
           style="fill:#961c25;fill-opacity:1;fill-rule:evenodd;stroke:#00ccff;stroke-width:0;stroke-linejoin:round;stroke-miterlimit:4;stroke-dasharray:none;stroke-opacity:1" />
      </g>
    </clipPath>
    <clipPath
       clipPathUnits="userSpaceOnUse"
       id="clipPath5039">
      <g
         id="g5047"
         style="stroke-width:0.99999994">
        <g
           id="g5045"
           style="stroke-width:0.99999994">
          <rect
             style="fill:#961c25;fill-opacity:1;fill-rule:evenodd;stroke:#00ccff;stroke-width:0;stroke-linejoin:round;stroke-miterlimit:4;stroke-dasharray:none;stroke-opacity:1"
             id="rect5041"
             width="99.691536"
             height="121.87491"
             x="274.74524"
             y="131.0799" />
          <rect
             style="fill:#961c25;fill-opacity:1;fill-rule:evenodd;stroke:#00ccff;stroke-width:0;stroke-linejoin:round;stroke-miterlimit:4;stroke-dasharray:none;stroke-opacity:1"
             id="rect5043"
             width="99.691544"
             height="121.87491"
             x="246.59499"
             y="194.84773" />
        </g>
      </g>
    </clipPath>
    <clipPath
       clipPathUnits="userSpaceOnUse"
       id="clipPath5049">
      <ellipse
         style="fill:#0000ff;fill-opacity:1;fill-rule:evenodd;stroke:#00ccff;stroke-width:0;stroke-linejoin:round;stroke-miterlimit:4;stroke-dasharray:none;stroke-opacity:1"
         id="ellipse5051"
         cx="314.702"
         cy="167.82945"
         rx="60.00201"
         ry="37.016827" />
    </clipPath>
    <clipPath
       clipPathUnits="userSpaceOnUse"
       id="clipPath5065">
      <path
         style="fill:#0000ff;stroke:#000000;stroke-width:0.26458332px;stroke-linecap:butt;stroke-linejoin:miter;stroke-opacity:1"
         d="m 278.33024,148.91116 c 0,0.57908 0,1.15816 0,1.73725 0,0.0324 0.004,0.3966 0,0.4009 -0.0315,0.0315 -0.10212,-0.0315 -0.13364,0 -0.0315,0.0315 0,0.0891 0,0.13364 0,0.0445 0,0.0891 0,0.13363 0,0.35636 0,0.71272 0,1.06908 0,0.75726 0,1.51453 0,2.27179 0,0.35636 0,0.71272 0,1.06908 0,0.0445 0,0.0891 0,0.13363 0,0.0445 -0.0315,0.10214 0,0.13364 0.0315,0.0315 0.10213,-0.0315 0.13364,0 0.0668,0.0668 -0.0668,0.33409 0,0.4009 0.0315,0.0315 0.10213,-0.0315 0.13365,0 0.063,0.063 -0.0398,0.18759 0,0.26727 0.0282,0.0564 0.10546,0.0773 0.13361,0.13364 0.0265,0.053 -0.0273,0.37358 0,0.4009 0.0315,0.0315 0.10216,-0.0315 0.13364,0 0.0315,0.0315 0,0.0891 0,0.13364 0,0.26726 0,0.53454 0,0.8018 0,0.93545 0,1.87089 0,2.80633 0,0.0324 -0.004,0.39661 0,0.40091 0.0315,0.0315 0.10216,-0.0315 0.13364,0 0.0315,0.0315 0,0.0891 0,0.13363 0,0.22273 0,0.44545 0,0.66818 0,0.0445 -0.0315,0.10213 0,0.13363 0.0315,0.0315 0.10213,-0.0315 0.13364,0 0.0322,0.0322 -0.0322,0.50238 0,0.53454 0.0315,0.0315 0.10213,-0.0315 0.13364,0 0.0315,0.0315 0,0.0891 0,0.13363 0,0.063 -0.006,0.66212 0,0.66818 0.0315,0.0315 0.10213,-0.0315 0.13362,0 0.005,0.005 0,0.48546 0,0.53454 0,0.0324 -0.004,0.39661 0,0.4009 0.0315,0.0315 0.10215,-0.0315 0.13364,0 0.063,0.063 -0.063,0.20428 0,0.26727 0.0315,0.0315 0.10213,-0.0315 0.13364,0 0.0668,0.0668 -0.0668,0.33409 0,0.40091 0.0315,0.0315 0.13364,-0.0445 0.13364,0 0,0.0445 -0.13364,-0.0445 -0.13364,0 0,0.063 0.10546,0.0773 0.13364,0.13363 0.0398,0.0797 -0.0399,0.18759 0,0.26727 0.0281,0.0564 0.10547,0.0773 0.13362,0.13364 0.0399,0.0797 -0.063,0.20427 0,0.26727 0.0315,0.0315 0.0938,-0.0199 0.13364,0 0.0564,0.0282 0.0773,0.10546 0.13364,0.13363 0.0399,0.0199 0.13364,-0.0445 0.13364,0 0,0.0445 -0.1782,0 -0.13364,0 0.13364,0 0.26725,0 0.4009,0 0.0446,0 0.0891,0 0.13364,0 0.0446,0 0.0938,0.0199 0.13364,0 0.20465,-0.10234 0.10448,-0.23814 0.26725,-0.4009 0.32459,-0.32458 0.19624,0.0397 0.40093,-0.26727 0.0553,-0.0829 0.0632,-0.19684 0.13361,-0.26727 0.0315,-0.0315 0.0891,0 0.13364,0 0.0891,-0.0445 0.21201,-0.0508 0.26728,-0.13364 0.0494,-0.0741 -0.0282,-0.18275 0,-0.26727 0.0886,-0.26592 0.12473,-0.0624 0.26726,-0.13363 0.29549,-0.14774 0.0415,-0.0829 0.13364,-0.26727 0.0282,-0.0564 0.10546,-0.0773 0.13364,-0.13364 0.0204,-0.0407 0,-0.34072 0,-0.4009 0,-0.26727 0,-0.53454 0,-0.80181 0,-0.0445 0,-0.0891 0,-0.13364 0,-0.0445 -0.0198,-0.0938 0,-0.13363 0.0281,-0.0563 0.10546,-0.0773 0.13362,-0.13363 0.0398,-0.0797 -0.0282,-0.18275 0,-0.26727 0.0315,-0.0945 0.10948,-0.17064 0.13364,-0.26727 0.0439,-0.17571 -0.0553,-0.50221 0,-0.66818 0.0198,-0.0598 0.0891,-0.0891 0.13364,-0.13363 0.0445,-0.0891 0.10948,-0.17064 0.13364,-0.26727 0.0217,-0.0864 -0.0282,-0.18275 0,-0.26727 0.0198,-0.0598 0.10546,-0.0773 0.13361,-0.13363 0.0399,-0.0797 -0.0398,-0.18759 0,-0.26728 0.0282,-0.0563 0.10547,-0.0773 0.13365,-0.13363 0.0175,-0.0351 0,-0.46466 0,-0.53454 0,-0.48999 0,-0.97999 0,-1.46998 0,-0.12586 -0.0254,-0.59216 0,-0.66818 0.0198,-0.0598 0.10546,-0.0773 0.13364,-0.13363 0.0399,-0.0797 -0.0398,-0.18759 0,-0.26727 0.0282,-0.0563 0.10546,-0.0773 0.13364,-0.13363 0.0198,-0.0399 -0.0199,-0.0938 0,-0.13364 0.0282,-0.0563 0.11372,-0.0739 0.13361,-0.13363 0.0282,-0.0845 0,-0.17818 0,-0.26727 0,-0.0446 -0.0198,-0.0938 0,-0.13364 0.0282,-0.0563 0.11372,-0.0739 0.13364,-0.13363 0.0282,-0.0845 -0.0217,-0.18084 0,-0.26727 0.0241,-0.0966 0.10216,-0.17278 0.13364,-0.26727 0.014,-0.0423 -0.014,-0.0914 0,-0.13364 0.063,-0.18899 0.21895,-0.34127 0.26729,-0.53454 0.0217,-0.0864 -0.0282,-0.18275 0,-0.26727 0.0198,-0.0598 0.10543,-0.0773 0.13361,-0.13363 0.0394,-0.0789 -0.0306,-0.30899 0,-0.4009 0.0315,-0.0945 0.10216,-0.17278 0.13364,-0.26727 0.0251,-0.0754 0,-0.3131 0,-0.40091 0,-0.26727 0,-0.53454 0,-0.80181 0,-0.0602 -0.0204,-0.36023 0,-0.4009 0.0282,-0.0564 0.10546,-0.0773 0.13364,-0.13364 0.0265,-0.053 -0.0273,-0.37358 0,-0.4009 0.0315,-0.0315 0.0891,0 0.13364,0 0.0445,-0.0446 0.0987,-0.0812 0.13362,-0.13363 0.0167,-0.0249 0.25871,-0.52598 0.26728,-0.53454 0.0704,-0.0704 0.17817,-0.0891 0.26726,-0.13364 0.96893,-0.48446 -0.2113,0.14086 0.40092,-0.26727 0.0249,-0.0166 0.52596,-0.2587 0.53454,-0.26727 0.14086,-0.14086 0.12639,-0.39367 0.26725,-0.53454 0.24937,-0.24935 0.39151,-0.0621 0.53454,-0.13363 0.0563,-0.0282 0.0812,-0.0987 0.13364,-0.13364 0.0829,-0.0553 0.18439,-0.0784 0.26728,-0.13363 0.0524,-0.0349 0.0739,-0.11372 0.13362,-0.13364 0.0845,-0.0282 0.18084,0.0216 0.26728,0 0.19325,-0.0483 0.34957,-0.19328 0.53454,-0.26726 1.32963,-0.44322 -0.31499,0.12599 0.66818,-0.26727 0.13078,-0.0523 0.27011,-0.0813 0.40089,-0.13364 0.0925,-0.037 0.1696,-0.1141 0.26729,-0.13363 0.13102,-0.0262 0.26908,0.022 0.40089,0 0.13893,-0.0232 0.26726,-0.0891 0.4009,-0.13364 0.13364,-0.0445 0.27011,-0.0813 0.4009,-0.13363 0.0925,-0.037 0.16959,-0.11411 0.26728,-0.13364 0.13105,-0.0262 0.2686,0.0189 0.40089,0 0.18183,-0.026 0.35272,-0.10766 0.53454,-0.13363 0.13229,-0.0189 0.26988,0.0262 0.40092,0 0.0977,-0.0195 0.1696,-0.1141 0.26726,-0.13364 0.13105,-0.0262 0.26728,0 0.4009,0 0.13364,-0.0445 0.26426,-0.0995 0.40092,-0.13363 0.11314,-0.0283 0.39579,0 0.53454,0 0.2349,0 0.59272,-0.0349 0.80179,0 0.13896,0.0231 0.26197,0.11048 0.40092,0.13363 0.13182,0.022 0.26861,-0.0189 0.4009,0 1.4477,0.36193 -0.36732,-0.0459 1.06908,0.13364 0.18224,0.0228 0.35229,0.11085 0.53453,0.13363 0.1768,0.0221 0.35637,0 0.53454,0 0.5791,0 1.15816,0 1.73726,0 0.0576,0 0.76565,-0.0181 0.80182,0 0.11268,0.0564 0.16242,0.19738 0.26725,0.26727 0.35031,0.23353 0.23355,0.0499 0.66818,0.26727 0.0564,0.0282 0.0773,0.10546 0.13364,0.13364 0.80711,0.40356 0.0566,-0.0193 0.66815,0.13363 0.24189,-0.0805 0.24855,0.21648 0.40093,0.26727 0.0845,0.0282 0.18084,-0.0216 0.26725,0 0.64532,0.16133 -0.007,0.0635 0.40093,0.26727 0.0797,0.0398 0.18756,-0.0398 0.26725,0 0.0564,0.0282 0.0773,0.10546 0.13364,0.13363 0.0398,0.0199 0.10213,-0.0315 0.13364,0 0.0315,0.0315 -0.0315,0.10214 0,0.13364 0.35634,0 -0.0446,-0.0445 0.13362,0.13363 0.063,0.063 0.20428,-0.063 0.26728,0 0.0315,0.0315 -0.0315,0.10214 0,0.13364 0.063,0.063 0.18759,-0.0398 0.26726,0 0.0564,0.0282 0.0773,0.10546 0.13364,0.13363 0.0399,0.0199 0.10215,-0.0315 0.13364,0 0.0315,0.0315 -0.0315,0.10214 0,0.13364 0.0315,0.0315 0.10213,-0.0315 0.13364,0 0.0315,0.0315 -0.0315,0.10213 0,0.13363 0.0315,0.0315 0.10213,-0.0315 0.13364,0 0.0315,0.0315 -0.0315,0.10214 0,0.13364 0.0315,0.0315 0.10213,-0.0315 0.13361,0 0.27649,0.27649 -0.42251,-0.0108 0.13365,0.26727 0.0797,0.0398 0.20428,-0.063 0.26728,0 0.063,0.063 -0.0398,0.18758 0,0.26727 0.27807,0.55615 -0.009,-0.14286 0.26725,0.13363 0.063,0.063 -0.063,0.20428 0,0.26727 0.0315,0.0315 0.0938,-0.0199 0.13364,0 0.55616,0.27808 -0.14287,-0.009 0.13365,0.26727 0.0315,0.0315 0.10212,-0.0315 0.13361,0 0.063,0.063 -0.063,0.20427 0,0.26727 0.35637,0 -0.0445,-0.0445 0.13364,0.13363 0.0315,0.0315 0.10213,-0.0315 0.13364,0 0.0273,0.0273 -0.0265,0.34792 0,0.40091 0.0282,0.0563 0.10546,0.0773 0.13364,0.13363 0.0398,0.0797 -0.0399,0.18759 0,0.26727 0.0282,0.0564 0.10547,0.0773 0.13362,0.13364 0.0265,0.053 -0.0273,0.37358 0,0.4009 0.0315,0.0315 0.10215,-0.0315 0.13364,0 0.005,0.005 0,0.48547 0,0.53454 0,1.15817 0,2.31634 0,3.4745 0,0.66818 0,1.33635 0,2.00453 0,0.0445 0,0.0891 0,0.13363 0,0.0446 -0.0315,0.10214 0,0.13364 0.0315,0.0315 0.10213,-0.0315 0.13364,0 0.0273,0.0273 -0.0265,0.34792 0,0.4009 0.0282,0.0564 0.10546,0.0773 0.13364,0.13363 0.0198,0.0399 0,0.0891 0,0.13364 0,0.22273 0,0.44545 0,0.66817 0,0.0446 0,0.0891 0,0.13364 0,0.0445 -0.0198,0.0938 0,0.13363 0.0282,0.0563 0.10546,0.0773 0.13362,0.13364 0.0362,0.0725 -0.0366,0.49797 0,0.53454 0.0315,0.0315 0.10215,-0.0315 0.13364,0 0.063,0.063 -0.063,0.20427 0,0.26727 0.0315,0.0315 0.0891,0 0.13364,0 0.0446,0 0.0891,0 0.13364,0 0.35634,0 -0.0445,-0.0445 0.13364,0.13363 0.063,0.063 0.20426,-0.063 0.26725,0 0.0315,0.0315 -0.0315,0.10214 0,0.13364 0.0315,0.0315 0.10213,-0.0315 0.13365,0 0.0315,0.0315 -0.0198,0.0938 0,0.13363 0.27807,0.55616 -0.009,-0.14286 0.26725,0.13363 0.0315,0.0315 -0.0315,0.10214 0,0.13364 0.0315,0.0315 0.10216,-0.0315 0.13364,0 0.0315,0.0315 -0.0315,0.10214 0,0.13364 0.0891,0.089 0.17823,-0.0891 0.26728,0 0.0315,0.0315 -0.0315,0.10213 0,0.13363 0.0315,0.0315 0.0938,-0.0199 0.13362,0 0.0564,0.0282 0.0773,0.10546 0.13364,0.13363 0.0351,0.0176 0.46466,0 0.53454,0 0.0446,0 0.0891,0 0.13364,0 0.0446,0 0.13364,-0.0445 0.13364,0 0,0.0446 -0.1782,0 -0.13364,0 0.13364,0 0.26725,0 0.4009,0 0.0446,0 0.10215,0.0315 0.13364,0 0.0315,-0.0315 -0.0198,-0.0938 0,-0.13363 0.0658,-0.1315 0.46879,-0.40304 0.53453,-0.53454 0.0199,-0.0398 -0.0315,-0.10214 0,-0.13363 0.0315,-0.0315 0.10213,0.0315 0.13365,0 0.0315,-0.0315 -0.0315,-0.10214 0,-0.13364 0.0315,-0.0315 0.0938,0.0199 0.13364,0 0.0563,-0.0282 0.0891,-0.0891 0.13361,-0.13363 0.0446,-0.0445 0.10546,-0.0773 0.13364,-0.13364 0.0922,-0.18433 -0.16184,-0.11953 0.13364,-0.26727 0.0398,-0.0199 0.10213,0.0315 0.13364,0 0.0668,-0.0668 -0.0668,-0.33408 0,-0.4009 0.0315,-0.0315 0.10213,0.0315 0.13362,0 0.004,-0.004 0,-0.3685 0,-0.40091 0,-0.66817 0,-1.33634 0,-2.00452 0,-0.0324 -0.004,-0.39661 0,-0.4009 0.0315,-0.0315 0.10215,0.0315 0.13364,0 0.0322,-0.0322 -0.0321,-0.50239 0,-0.53454 0.0315,-0.0315 0.10213,0.0315 0.13364,0 0.0315,-0.0315 0,-0.0891 0,-0.13364 0,-0.31181 0,-0.62362 0,-0.93544 0,-0.0699 -0.0175,-0.4994 0,-0.53454 0.0282,-0.0563 0.10546,-0.0773 0.13364,-0.13363 0.0241,-0.0483 0,-0.57523 0,-0.66818 0,-0.53454 0,-1.06908 0,-1.60361 0,-0.8909 0,-1.7818 0,-2.6727 0,-0.0324 0.004,-0.3966 0,-0.4009 -0.0315,-0.0315 -0.10215,0.0315 -0.13364,0 -0.063,-0.063 0.0398,-0.18759 0,-0.26727 -0.0282,-0.0564 -0.10546,-0.0773 -0.13364,-0.13364 -0.0398,-0.0797 0.0399,-0.18758 0,-0.26727 -0.27808,-0.55615 0.009,0.14286 -0.26726,-0.13363 -0.0315,-0.0315 0.0315,-0.10214 0,-0.13364 -0.0315,-0.0315 -0.10215,0.0315 -0.13364,0 -0.0315,-0.0315 0.0315,-0.10213 0,-0.13363 -0.0315,-0.0315 -0.10213,0.0315 -0.13364,0 -0.063,-0.063 0.063,-0.20428 0,-0.26727 -0.0315,-0.0315 -0.10213,0.0315 -0.13364,0 -0.063,-0.063 0.0398,-0.18759 0,-0.26727 -0.0282,-0.0564 -0.10546,-0.0773 -0.13361,-0.13364 -0.0199,-0.0398 0.0315,-0.10213 0,-0.13363 -0.0315,-0.0315 -0.10216,0.0315 -0.13364,0 -0.0315,-0.0315 0.0315,-0.10214 0,-0.13363 -0.0315,-0.0315 -0.10213,0.0315 -0.13365,0 -0.0273,-0.0273 0.0265,-0.34792 0,-0.40091 -0.0282,-0.0563 -0.10546,-0.0773 -0.13364,-0.13363 -0.0198,-0.0399 0.0315,-0.10214 0,-0.13364 -0.0315,-0.0315 -0.10213,0.0315 -0.13361,0 -0.0668,-0.0668 0.0668,-0.33408 0,-0.4009 -0.0315,-0.0315 -0.10216,0.0315 -0.13364,0 -0.0315,-0.0315 0.0315,-0.10214 0,-0.13364 -0.27649,-0.27649 0.0109,0.42252 -0.26728,-0.13363 -0.0399,-0.0797 0.0399,-0.18759 0,-0.26727 -0.0563,-0.11269 -0.21093,-0.15458 -0.26726,-0.26727 -0.0399,-0.0797 0.0398,-0.18759 0,-0.26727 -0.0282,-0.0563 -0.10546,-0.0773 -0.13364,-0.13364 -0.0198,-0.0398 0.0315,-0.10213 0,-0.13363 -0.0315,-0.0315 -0.10213,0.0315 -0.13364,0 -0.063,-0.063 0.063,-0.20427 0,-0.26727 -0.0315,-0.0315 -0.10213,0.0315 -0.13364,0 -0.0668,-0.0668 0.0668,-0.33409 0,-0.40091 -0.0315,-0.0315 -0.10213,0.0315 -0.13362,0 -0.063,-0.063 0.063,-0.20427 0,-0.26726 -0.0315,-0.0315 -0.10215,0.0315 -0.13364,0 -0.0668,-0.0668 0.0668,-0.33409 0,-0.40091 -0.0315,-0.0315 -0.10213,0.0315 -0.13364,0 -0.063,-0.063 0.063,-0.20427 0,-0.26727 -0.0315,-0.0315 -0.10213,0.0315 -0.13364,0 -0.063,-0.063 0.0399,-0.18758 0,-0.26727 -0.0282,-0.0563 -0.10546,-0.0773 -0.13362,-0.13363 -0.0399,-0.0797 0.063,-0.20428 0,-0.26727 -0.0315,-0.0315 -0.10215,0.0315 -0.13364,0 -0.0315,-0.0315 0.0315,-0.10214 0,-0.13364 -0.0315,-0.0315 -0.10213,0.0315 -0.13364,0 -0.0322,-0.0322 0.0321,-0.50238 0,-0.53453 -0.27649,-0.2765 0.0109,0.42252 -0.26725,-0.13364 -0.0199,-0.0398 0.0198,-0.0938 0,-0.13364 -0.0282,-0.0563 -0.10547,-0.0773 -0.13364,-0.13363 -0.0198,-0.0398 0,-0.0891 0,-0.13364 -0.0445,-0.0445 -0.10547,-0.0773 -0.13365,-0.13363 -0.0198,-0.0398 0.0199,-0.0938 0,-0.13363 -0.0282,-0.0563 -0.10546,-0.0773 -0.13364,-0.13364 -0.0534,-0.10691 0.0535,-0.29399 0,-0.4009 -0.0282,-0.0564 -0.10546,-0.0773 -0.13361,-0.13364 -0.0198,-0.0398 0.0315,-0.10213 0,-0.13363 -0.0315,-0.0315 -0.11372,0.0398 -0.13364,0 -0.11954,-0.10542 0.0598,-0.28138 0,-0.40091 -0.0282,-0.0563 -0.11372,-0.0739 -0.13364,-0.13363 -0.0563,-0.16904 0.0432,-0.36168 0,-0.53454 -0.16132,-0.64531 -0.0635,0.007 -0.26728,-0.40091 -0.0398,-0.0797 0.0399,-0.18758 0,-0.26726 -0.0563,-0.1127 -0.2109,-0.15458 -0.26726,-0.26727 -0.0198,-0.0399 0.0315,-0.10214 0,-0.13364 -0.0315,-0.0315 -0.10213,0.0315 -0.13364,0 -0.0315,-0.0315 0.0198,-0.0938 0,-0.13363 -0.0282,-0.0563 -0.0891,-0.0891 -0.13364,-0.13364 -0.0445,-0.0445 -0.0773,-0.10546 -0.13362,-0.13363 -0.0399,-0.0199 -0.10215,0.0315 -0.13364,0 -0.0315,-0.0315 0.0199,-0.0938 0,-0.13364 -0.27808,-0.55615 0.009,0.14286 -0.26728,-0.13363 -0.0315,-0.0315 0.0198,-0.0938 0,-0.13364 -0.0282,-0.0563 -0.0891,-0.0891 -0.13361,-0.13363 -0.0446,-0.0446 -0.0773,-0.10546 -0.13365,-0.13364 -0.0399,-0.0199 -0.0938,0.0199 -0.13364,0 -0.0564,-0.0282 -0.0891,-0.0891 -0.13364,-0.13363 -0.0445,-0.0446 -0.10546,-0.0773 -0.13361,-0.13364 -0.0198,-0.0398 0.0198,-0.0938 0,-0.13363 -0.0564,-0.11269 -0.19741,-0.16244 -0.26728,-0.26727 -0.0552,-0.0829 -0.0632,-0.19684 -0.13365,-0.26727 -0.0704,-0.0704 -0.19682,-0.0632 -0.26725,-0.13364 -0.0704,-0.0704 -0.0784,-0.18439 -0.13364,-0.26726 -0.035,-0.0524 -0.0987,-0.0812 -0.13364,-0.13364 -0.0552,-0.0829 -0.0784,-0.18439 -0.13364,-0.26727 -0.10967,-0.16453 -0.15756,-0.10273 -0.26726,-0.26727 -0.0552,-0.0829 -0.0784,-0.18439 -0.13364,-0.26727 -0.16452,-0.2468 -0.10274,-0.0205 -0.26726,-0.26727 -0.0553,-0.0829 -0.0632,-0.19683 -0.13364,-0.26727 -0.0704,-0.0704 -0.18439,-0.0784 -0.26728,-0.13363 -0.10483,-0.0699 -0.15457,-0.21093 -0.26726,-0.26727 -0.0399,-0.0199 -0.0938,0.0199 -0.13364,0 -0.0713,-0.0357 -0.19597,-0.23162 -0.26725,-0.26727 -0.0398,-0.0199 -0.0938,0.0199 -0.13364,0 -0.11269,-0.0564 -0.16246,-0.19738 -0.26729,-0.26727 -0.28569,-0.19048 -0.6224,-0.27569 -0.93543,-0.4009 -0.0925,-0.037 -0.17478,-0.0967 -0.26728,-0.13364 -0.26157,-0.10463 -0.53454,-0.17818 -0.8018,-0.26727 -0.13364,-0.0445 -0.26423,-0.0995 -0.40089,-0.13363 -0.0432,-0.0108 -0.0904,0.0108 -0.13364,0 -0.44379,-0.11095 -0.43553,-0.20478 -0.93546,-0.26727 -0.2652,-0.0332 -0.53454,0 -0.8018,0 -0.57909,0 -1.15816,0 -1.73725,0 -0.66818,0 -1.33636,0 -2.00454,0 -0.2227,0 -0.44542,0 -0.66815,0 -0.13364,0 -0.26863,-0.0189 -0.40092,0 -0.1818,0.026 -0.35634,0.0891 -0.53454,0.13363 -0.35634,0.0891 -0.71588,0.16636 -1.06908,0.26727 -0.13544,0.0387 -0.26146,0.11371 -0.40089,0.13363 -0.1764,0.0252 -0.35775,-0.0221 -0.53454,0 -0.18225,0.0228 -0.35637,0.0891 -0.53454,0.13364 -0.17819,0.0446 -0.35795,0.0832 -0.53454,0.13364 -0.13544,0.0387 -0.26278,0.106 -0.40089,0.13363 -0.0874,0.0175 -0.17992,-0.0175 -0.26728,0 -0.13814,0.0276 -0.26729,0.0891 -0.4009,0.13364 -0.26728,0.0891 -0.52851,0.19894 -0.80182,0.26726 -0.0432,0.0108 -0.0891,0 -0.13364,0 -0.0891,0.0445 -0.17277,0.10214 -0.26726,0.13364 -0.0919,0.0306 -0.32205,-0.0394 -0.40089,0 -0.0564,0.0282 -0.0812,0.0987 -0.13365,0.13363 -0.16576,0.11051 -0.3688,0.15677 -0.53453,0.26727 -0.0524,0.035 -0.0739,0.11372 -0.13364,0.13364 -0.0845,0.0282 -0.18085,-0.0216 -0.26729,0 -0.0966,0.0241 -0.17817,0.0891 -0.26725,0.13363 -0.0891,0.0446 -0.17817,0.0891 -0.26728,0.13364 -0.17817,0.0891 -0.35634,0.17818 -0.53454,0.26727 -0.0891,0.0445 -0.18439,0.0784 -0.26726,0.13363 -0.0524,0.0349 -0.0739,0.11372 -0.13364,0.13364 -0.0845,0.0282 -0.18084,-0.0216 -0.26725,0 -0.38759,0.0969 -0.1564,0.10426 -0.40093,0.26727 -0.0829,0.0553 -0.18439,0.0784 -0.26725,0.13363 -0.1542,0.1028 -0.24673,0.29811 -0.40093,0.40091 -0.0829,0.0553 -0.19682,0.0632 -0.26725,0.13363 -0.0704,0.0704 -0.0632,0.19684 -0.13364,0.26727 -0.0704,0.0704 -0.18439,0.0784 -0.26726,0.13363 -0.11533,0.0769 -0.29654,0.29653 -0.40092,0.40091 -0.0703,0.0703 -0.36521,0.32953 -0.4009,0.4009 -0.0922,0.18433 0.16185,0.11954 -0.13364,0.26727 -0.0399,0.0199 -0.10213,-0.0315 -0.13361,0 -0.063,0.063 0.0398,0.18759 0,0.26727 -0.0282,0.0563 -0.0773,0.10546 -0.13364,0.13364 -0.0399,0.0199 -0.11372,-0.0398 -0.13365,0 -0.0399,0.0797 0.0282,0.18275 0,0.26727 -0.0198,0.0598 -0.10546,0.0773 -0.13364,0.13363 -0.0198,0.0398 0.0199,0.0938 0,0.13364 -0.0563,0.11269 -0.21092,0.15457 -0.26725,0.26727 -0.0398,0.0797 0.063,0.20427 0,0.26726 -0.0315,0.0315 -0.10216,-0.0315 -0.13364,0 -0.063,0.063 0.0399,0.18759 0,0.26728 -0.0282,0.0563 -0.10547,0.0773 -0.13364,0.13363 -0.0399,0.0797 0.0399,0.18758 0,0.26727 -0.0282,0.0563 -0.10547,0.0773 -0.13365,0.13363 -0.0198,0.0399 0.0315,0.10214 0,0.13364 -0.0315,0.0315 -0.0891,0 -0.13361,0 -0.0446,0.0445 -0.0987,0.0812 -0.13364,0.13363 -0.3891,0.58366 0.0592,-0.044 -0.13364,0.53454 -0.0198,0.0598 -0.10546,0.0773 -0.13364,0.13364 -0.0398,0.0797 0.0399,0.18758 0,0.26727 -0.0282,0.0563 -0.10547,0.0773 -0.13362,0.13363 -0.0399,0.0797 0.0398,0.18759 0,0.26727 -0.0564,0.11269 -0.21092,0.15458 -0.26728,0.26727 -0.0198,0.0398 0.0198,0.0938 0,0.13363 -0.0282,0.0563 -0.10546,0.0773 -0.13364,0.13364 -0.0198,0.0398 0.0315,0.10214 0,0.13364 -0.0315,0.0315 -0.10213,-0.0315 -0.13362,0 -0.063,0.063 0.0281,0.18275 0,0.26726 -0.0315,0.0945 -0.10215,0.17278 -0.13364,0.26727 -0.0306,0.0919 0.0394,0.32206 0,0.40091 -0.0282,0.0563 -0.10546,0.0773 -0.13364,0.13363 -0.042,0.084 0.042,0.45055 0,0.53454 -0.0282,0.0563 -0.10546,0.0773 -0.13364,0.13364 -0.0198,0.0398 0.0315,0.10213 0,0.13363 -0.0315,0.0315 -0.10213,-0.0315 -0.13364,0 -0.006,0.006 0,0.60517 0,0.66818 0,0.44544 0,0.89089 0,1.33634 0,0.0985 0.0222,0.61271 0,0.66818 -0.074,0.18496 -0.17817,0.35636 -0.26726,0.53454 z"
         id="path5067"
         inkscape:connector-curvature="0" />
    </clipPath>
    <clipPath
       clipPathUnits="userSpaceOnUse"
       id="clipPath5073">
      <rect
         style="fill:#0000ff;fill-opacity:1;fill-rule:evenodd;stroke:#2a3bea;stroke-width:0;stroke-linejoin:round;stroke-miterlimit:4;stroke-dasharray:none;stroke-opacity:1"
         id="rect5075"
         width="45.735119"
         height="56.696423"
         x="260.2366"
         y="125.20982" />
    </clipPath>
    <clipPath
       clipPathUnits="userSpaceOnUse"
       id="clipPath5089">
      <rect
         style="fill:#0000ff;fill-opacity:1;fill-rule:evenodd;stroke:#2a3bea;stroke-width:0;stroke-linejoin:round;stroke-miterlimit:4;stroke-dasharray:none;stroke-opacity:1"
         id="rect5091"
         width="39.555889"
         height="71.360962"
         x="272.79825"
         y="138.31432" />
    </clipPath>
    <clipPath
       clipPathUnits="userSpaceOnUse"
       id="clipPath5107">
      <rect
         style="fill:#ff00ff;fill-opacity:1;fill-rule:evenodd;stroke:#2a3bea;stroke-width:0;stroke-linejoin:round;stroke-miterlimit:4;stroke-dasharray:none;stroke-opacity:1"
         id="rect5109"
         width="95.25"
         height="95.25"
         x="-133.04762"
         y="185.72374"
         clip-path="none" />
    </clipPath>
    <mask
       id="a">
      <rect
         style="fill:#ffffff"
         y="0"
         x="0"
         width="176"
         height="20"
         rx="3"
         id="rect7" />
    </mask>
    <linearGradient
       gradientUnits="userSpaceOnUse"
       y1="0"
       x1="0"
       gradientTransform="scale(2.9664794,0.33709993)"
       id="b"
       x2="0"
       y2="59.329588">
      <stop
         offset="0"
         stop-color="#bbb"
         stop-opacity=".1"
         id="stop2" />
      <stop
         offset="1"
         stop-opacity=".1"
         id="stop4" />
    </linearGradient>
    <clipPath
       clipPathUnits="userSpaceOnUse"
       id="clipPath1077">
      <path
         style="fill:none;stroke:#000000;stroke-width:0.26458332px;stroke-linecap:butt;stroke-linejoin:miter;stroke-opacity:1"
         d="m -129.41977,311.80756 2.15152,-4.11595 -0.0936,-3.74177 0.18709,-2.61924 1.59025,-0.8419 -1.68379,-2.24507 0.56126,-1.87088 2.24506,-1.12254 1.30963,-0.93544 0.65481,-0.93544 h 1.49671 l -0.18709,48.45596 h -8.32545 z"
         id="path1079"
         inkscape:connector-curvature="0" />
    </clipPath>
    <clipPath
       clipPathUnits="userSpaceOnUse"
       id="clipPath1085">
      <path
         style="fill:none;stroke:#000000;stroke-width:0.26458332px;stroke-linecap:butt;stroke-linejoin:miter;stroke-opacity:1"
         d="m -88.260267,302.8273 -7.951269,16.08963 -9.541524,3.55469 -0.28063,7.29645 -5.61266,7.39001 7.67064,-5.70621 0.28063,-5.98684 11.225316,-4.20949 9.915702,-13.65747 -0.187087,34.51786 h -38.914441 l 0.0935,-39.28863 z"
         id="path1087"
         inkscape:connector-curvature="0" />
    </clipPath>
    <clipPath
       clipPathUnits="userSpaceOnUse"
       id="clipPath1117">
      <path
         style="fill:none;stroke:#000000;stroke-width:0.26458332px;stroke-linecap:butt;stroke-linejoin:miter;stroke-opacity:1"
         d="m -103.8354,283.8378 h -1.30962 l 0.0935,1.44994 -0.56126,0.42095 0.14031,0.56127 0.0936,0.8419 -0.74835,0.3274 -0.46773,1.30962 v 1.59026 0.65481 l -0.60804,0.60804 -0.0935,0.6548 c 0,0 0.23386,0.32741 0.14032,0.5145 -0.0935,0.18709 -0.65481,0.56126 -0.65481,0.56126 l -1.21608,0.79513 -2.19829,0.37418 -0.65481,0.51449 -0.0935,0.98222 c 0,0 -0.51449,0.70158 -0.65481,0.88867 -0.14031,0.18709 -0.0935,0.51449 0.0935,0.8419 0.18709,0.3274 0.37417,0.3274 0.18709,0.65481 -0.18709,0.3274 -0.32741,0.60804 -0.37418,0.8419 -0.0468,0.23386 -0.14032,0.65481 -0.37418,0.88867 -0.23386,0.23386 -0.3274,0.23386 -0.46772,0.56127 -0.14032,0.3274 -0.37418,0.70158 -0.14032,0.88867 0.23387,0.18708 0.23387,0.79512 0.23387,0.79512 l -0.5145,0.56127 1.35639,0.42095 1.87089,-0.0935 1.02899,-0.14031 h 4.63044 l 1.59026,-0.18709 0.98221,-0.0935 1.77734,0.46773 c 0,0 1.403171,0.23386 1.637031,0.18709 0.23386,-0.0468 1.449935,-0.28064 1.449935,-0.28064 0,0 0.608039,-0.37418 0.795126,-0.42095 0.187092,-0.0468 0.935445,-0.23386 0.935445,-0.23386 0,0 1.730571,0 2.15152,0.18709 0.42095,0.18709 1.777342,0.32741 1.777342,0.32741 l 1.96443,0.14031 0.420952,-0.51449 -0.374179,-1.6838 -0.888672,-0.70158 -0.795125,-1.6838 c 0,0 0.374176,-0.28063 -0.140317,-0.28063 -0.514495,0 -2.712786,-0.8419 -2.712786,-0.8419 l -0.701582,-1.07576 -0.18709,-0.88867 -0.795126,-0.42095 -2.666013,0.0468 c 0,0 -2.759561,0.46772 -3.227281,0.51449 -0.46772,0.0468 -2.0112,1.54348 -2.0112,1.54348 l -0.46772,0.70159 0.70158,-2.01121 2.5257,-1.30962 2.057974,-1.73057 -0.233915,-1.91779 -0.374177,-2.05797 0.280633,-1.96443 -1.496705,-1.07576 -0.70159,-0.98222 -0.8419,-0.46772 z"
         id="path1119"
         inkscape:connector-curvature="0" />
    </clipPath>
    <clipPath
       clipPathUnits="userSpaceOnUse"
       id="clipPath1121">
      <path
         style="fill:none;stroke:#000000;stroke-width:0.26458332px;stroke-linecap:butt;stroke-linejoin:miter;stroke-opacity:1"
         d="m -103.8354,283.8378 h -1.30962 l 0.0935,1.44994 -0.56126,0.42095 0.14031,0.56127 0.0936,0.8419 -0.74835,0.3274 -0.46773,1.30962 v 1.59026 0.65481 l -0.60804,0.60804 -0.0935,0.6548 c 0,0 0.23386,0.32741 0.14032,0.5145 -0.0935,0.18709 -0.65481,0.56126 -0.65481,0.56126 l -1.21608,0.79513 -2.19829,0.37418 -0.65481,0.51449 -0.0935,0.98222 c 0,0 -0.51449,0.70158 -0.65481,0.88867 -0.14031,0.18709 -0.0935,0.51449 0.0935,0.8419 0.18709,0.3274 0.37417,0.3274 0.18709,0.65481 -0.18709,0.3274 -0.32741,0.60804 -0.37418,0.8419 -0.0468,0.23386 -0.14032,0.65481 -0.37418,0.88867 -0.23386,0.23386 -0.3274,0.23386 -0.46772,0.56127 -0.14032,0.3274 -0.37418,0.70158 -0.14032,0.88867 0.23387,0.18708 0.23387,0.79512 0.23387,0.79512 l -0.5145,0.56127 1.35639,0.42095 1.87089,-0.0935 1.02899,-0.14031 h 4.63044 l 1.59026,-0.18709 0.98221,-0.0935 1.77734,0.46773 c 0,0 1.403171,0.23386 1.637031,0.18709 0.23386,-0.0468 1.449935,-0.28064 1.449935,-0.28064 0,0 0.608039,-0.37418 0.795126,-0.42095 0.187092,-0.0468 0.935445,-0.23386 0.935445,-0.23386 0,0 1.730571,0 2.15152,0.18709 0.42095,0.18709 1.777342,0.32741 1.777342,0.32741 l 1.96443,0.14031 0.420952,-0.51449 -0.374179,-1.6838 -0.888672,-0.70158 -0.795125,-1.6838 c 0,0 0.374176,-0.28063 -0.140317,-0.28063 -0.514495,0 -2.712786,-0.8419 -2.712786,-0.8419 l -0.701582,-1.07576 -0.18709,-0.88867 -0.795126,-0.42095 -2.666013,0.0468 c 0,0 -2.759561,0.46772 -3.227281,0.51449 -0.46772,0.0468 -2.0112,1.54348 -2.0112,1.54348 l -0.46772,0.70159 0.70158,-2.01121 2.5257,-1.30962 2.057974,-1.73057 -0.233915,-1.91779 -0.374177,-2.05797 0.280633,-1.96443 -1.496705,-1.07576 -0.70159,-0.98222 -0.8419,-0.46772 z"
         id="path1123"
         inkscape:connector-curvature="0" />
    </clipPath>
    <clipPath
       clipPathUnits="userSpaceOnUse"
       id="clipPath1135">
      <path
         style="fill:none;stroke:#000000;stroke-width:0.26458332px;stroke-linecap:butt;stroke-linejoin:miter;stroke-opacity:1"
         d="m -90.224698,303.10794 -6.64165,14.87355 -9.167342,3.74177 -0.18709,7.85772 -5.51911,7.76418 7.95126,-5.79975 0.37418,-5.79974 11.131778,-4.11595 8.980257,-12.72203 0.280633,0.74835 -0.187092,3.46114 0.09354,3.64823 -1.403165,12.4414 c 0,0 0.748355,1.02899 0.748355,1.4967 0,0.46773 0.748356,7.29646 0.748356,7.29646 l -0.374179,3.74178 -8.886711,-0.37418 -6.828737,0.37418 -10.383415,-0.46772 -1.30962,0.18708 h -2.15152 l -0.46772,-0.65481 -3.46114,0.8419 -0.74836,0.28064 -3.46114,-0.28064 -0.37418,-7.48354 0.56127,-5.14494 -0.74835,-2.80633 0.46772,-14.40583 0.74835,-2.5257 -1.12253,-2.80633 0.28063,-2.99341 h 1.77734 l 0.93545,0.93544 1.87089,-0.65481 0.93544,-0.56127 1.96443,-0.37418 9.16734,0.18709 1.30963,0.65481 1.21607,-0.65481 4.583669,0.0935 1.496708,0.65481 2.057977,-0.37418 0.467722,-0.46772 z"
         id="path1137"
         inkscape:connector-curvature="0" />
    </clipPath>
    <clipPath
       clipPathUnits="userSpaceOnUse"
       id="clipPath1141">
      <path
         style="fill:none;stroke:#000000;stroke-width:0.26458332px;stroke-linecap:butt;stroke-linejoin:miter;stroke-opacity:1"
         d="m -146.25775,311.52693 2.89987,6.5481 -1.21608,4.77076 1.30962,1.59026 -1.02898,3.92886 2.43215,3.74177 -2.61924,7.10937 4.58367,-7.67064 -1.77734,-3.92886 2.71278,-3.83532 -2.71278,-2.24506 2.5257,-3.46114 0.0935,-5.51911 3.18051,8.41899 0.37417,-1.96444 1.87089,3.64823 -0.28063,1.40317 2.89987,2.80633 0.18709,4.39658 4.49013,3.55469 -0.93544,2.71278 4.0224,3.46114 -0.56126,0.74836 h -38.8209 l -0.0936,-1.87089 2.61924,-3.3676 0.93545,-2.99341 2.89987,-4.95785 z"
         id="path1143"
         inkscape:connector-curvature="0" />
    </clipPath>
    <clipPath
       clipPathUnits="userSpaceOnUse"
       id="clipPath1159">
      <path
         style="fill:none;stroke:#000000;stroke-width:0.26458332px;stroke-linecap:butt;stroke-linejoin:miter;stroke-opacity:1"
         d="m -89.944065,448.38229 -73.900015,0.37417 6.73518,-57.06204 84.751168,-4.30304 z"
         id="path1161"
         inkscape:connector-curvature="0"
         sodipodi:nodetypes="ccccc" />
    </clipPath>
    <clipPath
       clipPathUnits="userSpaceOnUse"
       id="clipPath1224">
      <path
         style="fill:none;stroke:#000000;stroke-width:0.26458332px;stroke-linecap:butt;stroke-linejoin:miter;stroke-opacity:1"
         d="m -175.72422,455.30457 3.18051,6.26747 -4.30304,7.29646 4.67721,4.77076 -3.36759,6.5481 4.95785,-6.36101 -3.83532,-5.33203 4.67722,-7.76418 0.74835,-5.0514 2.43216,7.48355 2.99342,1.12254 11.31886,20.01848 -1.30962,1.40317 -7.29646,-0.18709 1.12253,-1.40317 -0.56126,-2.33861 -0.28064,2.05798 -2.15152,1.6838 -29.09228,-0.28063 -0.28064,-1.6838 2.71279,-2.71279 2.33861,-5.61266 z"
         id="path1226"
         inkscape:connector-curvature="0" />
    </clipPath>
    <clipPath
       clipPathUnits="userSpaceOnUse"
       id="clipPath1228">
      <path
         style="fill:none;stroke:#000000;stroke-width:0.26458332px;stroke-linecap:butt;stroke-linejoin:miter;stroke-opacity:1"
         d="m -175.72422,455.30457 3.18051,6.26747 -4.30304,7.29646 4.67721,4.77076 -3.36759,6.5481 4.95785,-6.36101 -3.83532,-5.33203 4.67722,-7.76418 0.74835,-5.0514 2.43216,7.48355 2.99342,1.12254 11.31886,20.01848 -1.30962,1.40317 -7.29646,-0.18709 1.12253,-1.40317 -0.56126,-2.33861 -0.28064,2.05798 -2.15152,1.6838 -29.09228,-0.28063 -0.28064,-1.6838 2.71279,-2.71279 2.33861,-5.61266 z"
         id="path1230"
         inkscape:connector-curvature="0" />
    </clipPath>
    <clipPath
       clipPathUnits="userSpaceOnUse"
       id="clipPath1234">
      <path
         style="fill:none;stroke:#000000;stroke-width:0.44139868px;stroke-linecap:butt;stroke-linejoin:miter;stroke-opacity:1"
         d="m -70.897123,310.01578 -1.586892,1.85591 -2.120196,-0.55909 2.389282,1.59494 2.283902,-0.98291 1.11766,1.22515 -1.447498,2.0305 -7.942628,-0.1647 -1.53586,-1.74895 4.073377,-7.12735 2.697247,-0.11588 z"
         id="path1236"
         inkscape:connector-curvature="0" />
    </clipPath>
    <clipPath
       clipPathUnits="userSpaceOnUse"
       id="clipPath1240">
      <path
         style="fill:none;stroke:#000000;stroke-width:0.26458332px;stroke-linecap:butt;stroke-linejoin:miter;stroke-opacity:1"
         d="m -154.11548,436.96988 -0.18709,1.87088 -1.49671,0.65482 v 1.87088 l -0.84189,3.64823 2.05797,2.24507 1.21608,0.46772 1.30962,-0.65481 -1.21608,1.59025 -1.49671,-0.65481 -1.02899,-0.65481 -1.21607,1.49671 -0.0935,1.59025 0.28064,1.30962 0.74835,1.6838 -1.40316,1.87089 0.37417,0.74835 -0.74835,1.96443 -0.74835,1.21608 0.28063,9.82216 0.28063,0.46772 0.46772,0.46772 0.46772,0.46772 v 0.46772 l -0.0935,0.46772 -0.37418,0.28064 -0.93553,1.12253 0.0935,12.72203 8.32545,-0.18709 -0.0935,-48.45596 z"
         id="path1242"
         inkscape:connector-curvature="0" />
    </clipPath>
    <clipPath
       clipPathUnits="userSpaceOnUse"
       id="clipPath1274">
      <path
         style="fill:none;stroke:#000000;stroke-width:0.26458332px;stroke-linecap:butt;stroke-linejoin:miter;stroke-opacity:1"
         d="m 16.397389,365.81605 0.425793,2.44559 0.973242,0.79121 -0.06083,1.94209 2.55476,1.87015 -1.824829,-2.08594 0.304139,-1.87015 -0.973243,-1.2228 0.54745,-1.94208 16.788427,0.0719 0.790757,0.57543 0.669106,0.57543 h 0.608274 l 0.851589,-1.15086 h 30.170503 l 4.683727,0.64736 0.912415,-0.79122 13.564562,0.28771 0.973242,1.36665 -0.121656,9.13499 -1.399035,1.22279 -29.805539,-0.0719 0.304138,-1.007 -1.03407,-0.86315 0.608276,1.07894 -0.790759,1.07894 -42.214375,-0.14386 -0.912414,-1.36665 0.121655,-9.56656 0.912415,-1.00701 z"
         id="path1276"
         inkscape:connector-curvature="0" />
    </clipPath>
    <clipPath
       clipPathUnits="userSpaceOnUse"
       id="clipPath1278">
      <path
         style="fill:none;stroke:#000000;stroke-width:0.26458332px;stroke-linecap:butt;stroke-linejoin:miter;stroke-opacity:1"
         d="m 17.831024,336.40402 0.463021,2.24896 1.058333,0.7276 -0.06615,1.78594 2.778125,1.71979 -1.984375,-1.91823 0.33073,-1.71979 -1.058334,-1.12448 0.595313,-1.78594 18.256251,0.0661 0.859894,0.52917 0.727606,0.52916 h 0.661456 l 0.926044,-1.05833 h 32.808331 l 5.093229,0.59531 0.992188,-0.7276 14.750521,0.26458 1.058333,1.25677 -0.132292,8.40052 -1.521354,1.12448 -32.411458,-0.0661 0.330729,-0.92604 -1.124479,-0.79375 0.661458,0.99219 -0.859896,0.99219 -45.905207,-0.13229 -0.992187,-1.25677 0.132291,-8.7974 0.992188,-0.92604 z"
         id="path1280"
         inkscape:connector-curvature="0" />
    </clipPath>
    <clipPath
       clipPathUnits="userSpaceOnUse"
       id="clipPath1224-4">
      <path
         style="fill:none;stroke:#000000;stroke-width:0.26458332px;stroke-linecap:butt;stroke-linejoin:miter;stroke-opacity:1"
         d="m -175.72422,455.30457 3.18051,6.26747 -4.30304,7.29646 4.67721,4.77076 -3.36759,6.5481 4.95785,-6.36101 -3.83532,-5.33203 4.67722,-7.76418 0.74835,-5.0514 2.43216,7.48355 2.99342,1.12254 11.31886,20.01848 -1.30962,1.40317 -7.29646,-0.18709 1.12253,-1.40317 -0.56126,-2.33861 -0.28064,2.05798 -2.15152,1.6838 -29.09228,-0.28063 -0.28064,-1.6838 2.71279,-2.71279 2.33861,-5.61266 z"
         id="path1226-1"
         inkscape:connector-curvature="0" />
    </clipPath>
  </defs>
  <sodipodi:namedview
     id="base"
     pagecolor="#ffffff"
     bordercolor="#666666"
     borderopacity="1.0"
     inkscape:pageopacity="1"
     inkscape:pageshadow="2"
     inkscape:zoom="1.4142136"
     inkscape:cx="-44.198352"
     inkscape:cy="179.94227"
     inkscape:document-units="mm"
     inkscape:current-layer="g4722"
     showgrid="true"
     inkscape:window-width="1920"
     inkscape:window-height="1001"
     inkscape:window-x="-9"
     inkscape:window-y="-9"
     inkscape:window-maximized="1"
     inkscape:snap-global="false">
    <inkscape:grid
       type="xygrid"
       id="grid5093" />
  </sodipodi:namedview>
  <metadata
     id="metadata5">
    <rdf:RDF>
      <cc:Work
         rdf:about="">
        <dc:format>image/svg+xml</dc:format>
        <dc:type
           rdf:resource="http://purl.org/dc/dcmitype/StillImage" />
        <dc:title />
      </cc:Work>
    </rdf:RDF>
  </metadata>
  <g
     inkscape:label="Layer 1"
     inkscape:groupmode="layer"
     id="layer1"
     transform="translate(0,-197)">
    <g
       id="g4722"
       transform="translate(-4.5357118,-58.586309)">
      <path
         style="fill:#000000;fill-opacity:1;fill-rule:evenodd;stroke:#2a3bea;stroke-width:0;stroke-linejoin:round;stroke-miterlimit:4;stroke-dasharray:none;stroke-opacity:1"
         d=""
         id="path5077"
         inkscape:connector-curvature="0"
         transform="matrix(0.26458333,0,0,0.26458333,4.5357118,58.586309)" />
      <path
         style="fill:none;stroke:#2c262d;stroke-width:3.82155609;stroke-linecap:butt;stroke-linejoin:round;stroke-miterlimit:4;stroke-dasharray:none;stroke-opacity:1;paint-order:stroke markers fill"
         d="m 9.42831,259.38316 h 91.00081 V 351.7222 H 9.42831 Z"
         id="path5111-7"
         inkscape:connector-curvature="0"
         inkscape:export-xdpi="600"
         inkscape:export-ydpi="600" />
      <path
         style="fill:#a98800;fill-opacity:0.66666667;stroke:#2c262d;stroke-width:3.82200003;stroke-linecap:butt;stroke-linejoin:miter;stroke-miterlimit:4;stroke-dasharray:none;stroke-opacity:1"
         d="M 9.49388,282.31469 34.13417,259.56787"
         id="path1244"
         inkscape:connector-curvature="0" />
      <path
         inkscape:connector-curvature="0"
         d="m 17.118824,312.68699 c -1.118321,-0.7466 -1.86493,-2.23742 -1.86493,-3.54362 0,-1.30533 0.559559,-2.51681 1.958056,-3.16949 h -0.09314 c 6.619979,-3.91611 15.851496,-9.13759 22.005839,-12.7743 v 8.67195 c -2.424487,1.39849 -5.687915,2.98401 -13.893439,7.3666 l 0.09314,0.0923 c 4.382542,1.95886 9.417768,4.9421 13.800313,7.55284 v 8.76507 z"
         id="path2"
         style="fill:#d40000;fill-opacity:1;stroke-width:0.79595751" />
      <path
         inkscape:connector-curvature="0"
         d="m 92.984725,306.16016 c 1.117526,0.74656 1.864931,2.2382 1.864931,3.54358 0,1.30537 -0.559559,2.51681 -1.958851,3.1695 h 0.09391 c -6.619978,3.91611 -15.852289,9.13762 -22.005838,12.77432 v -8.67195 c 2.424487,-1.3977 5.687911,-2.98321 13.893439,-7.3658 l -0.09314,-0.0923 c -4.381745,-1.95884 -9.417769,-4.94209 -13.800313,-7.55283 v -8.76505 z"
         id="path4"
         style="fill:#d40000;fill-opacity:1;stroke-width:0.79595751" />
      <path
         inkscape:connector-curvature="0"
         d="m 52.187124,326.81048 h -5.580461 l 11.215043,-34.77381 h 5.67518 z"
         id="path6"
         style="fill:#d40000;fill-opacity:1;stroke-width:0.79595751" />
      <path
         inkscape:connector-curvature="0"
         d="m 57.851185,326.90091 h 5.580461 L 52.216603,292.1271 h -5.675181 z"
         id="path6-3"
         style="fill:#d40000;fill-opacity:1;stroke-width:0.79595751" />
    </g>
  </g>
</svg>
