<?xml version="1.0" encoding="UTF-8" standalone="no"?>
<svg
   xmlns:dc="http://purl.org/dc/elements/1.1/"
   xmlns:cc="http://creativecommons.org/ns#"
   xmlns:rdf="http://www.w3.org/1999/02/22-rdf-syntax-ns#"
   xmlns:svg="http://www.w3.org/2000/svg"
   xmlns="http://www.w3.org/2000/svg"
   xmlns:sodipodi="http://sodipodi.sourceforge.net/DTD/sodipodi-0.dtd"
   xmlns:inkscape="http://www.inkscape.org/namespaces/inkscape"
   width="100pt"
   height="160pt"
   viewBox="0 0 100 160"
   version="1.1"
   id="svg2"
   inkscape:version="0.91 r13725"
   sodipodi:docname="develFork-Logo-2.svg"
   inkscape:export-filename="/media/aly/Data/Git/AlyShmahell-GraphicDesign/develFork-logo-2.png"
   inkscape:export-xdpi="1199.7715"
   inkscape:export-ydpi="1199.7715">
  <metadata
     id="metadata11">
    <rdf:RDF>
      <cc:Work
         rdf:about="">
        <dc:format>image/svg+xml</dc:format>
        <dc:type
           rdf:resource="http://purl.org/dc/dcmitype/StillImage" />
      </cc:Work>
    </rdf:RDF>
  </metadata>
  <defs
     id="defs9" />
  <sodipodi:namedview
     pagecolor="#ffffff"
     bordercolor="#666666"
     borderopacity="1"
     objecttolerance="10"
     gridtolerance="10"
     guidetolerance="10"
     inkscape:pageopacity="0"
     inkscape:pageshadow="2"
     inkscape:window-width="1301"
     inkscape:window-height="744"
     id="namedview7"
     showgrid="true"
     inkscape:zoom="4.72"
     inkscape:cx="49.40305"
     inkscape:cy="96.530321"
     inkscape:window-x="65"
     inkscape:window-y="24"
     inkscape:window-maximized="1"
     inkscape:current-layer="svg2">
    <inkscape:grid
       type="xygrid"
       id="grid3446" />
  </sodipodi:namedview>
  <g
     id="surface1"
     style="stroke:#ed0000;stroke-opacity:1">
    <path
       style="fill:#000000;fill-opacity:1;fill-rule:evenodd;stroke:#ed0000;stroke-opacity:1"
       d="M 80,10 C 70.964844,9.976562 63.046875,16.03125 60.699219,24.757812 58.355469,33.480469 62.171875,42.691406 70,47.199219 L 70,60 50,80 30,60 30,47.199219 C 37.828125,42.691406 41.644531,33.480469 39.300781,24.757812 36.953125,16.03125 29.035156,9.976562 20,10 10.964844,9.976562 3.046875,16.03125 0.699219,24.757812 -1.644531,33.480469 2.171875,42.691406 10,47.199219 L 10,65 40,95 40,112.80078 C 32.171875,117.30859 -2.8309717,127.87546 -0.48722168,136.59812 1.8604343,145.32468 46.644068,136 50,159.49153 54.644068,136 98.817532,144.64672 101.16519,135.92015 103.50894,127.1975 67.828125,117.30859 60,112.80078 L 60,95 90,65 90,47.199219 C 97.828125,42.691406 101.64453,33.480469 99.300781,24.757812 96.953125,16.03125 89.035156,9.976562 80,10 Z M 20,42 C 13.398438,42 8,36.5 8,30 8,23.5 13.5,18 20,18 c 6.5,0 12,5.5 12,12 0,6.5 -5.5,12 -12,12 z M 50,142 C 43.398438,142 11.559322,141.9237 11.559322,135.42373 11.559322,128.92373 43.5,118 50,118 c 6.5,0 37.084746,10.92373 37.084746,17.42373 C 87.084746,141.92373 56.5,142 50,142 Z M 80,42 c -6.601562,0 -12,-5.5 -12,-12 0,-6.5 5.5,-12 12,-12 6.5,0 12,5.5 12,12 0,6.5 -5.5,12 -12,12 z"
       id="path5"
       inkscape:connector-curvature="0"
       sodipodi:nodetypes="cccccccccccccccccccccccsssssssssssssss" />
    <path
       style="fill:#ffb380;fill-rule:evenodd;stroke:#ed0000;stroke-width:0.80000001px;stroke-linecap:butt;stroke-linejoin:miter;stroke-opacity:1"
       d="m 77.288135,18.983051 c 1.355933,23.050848 7.457625,22.372881 7.457625,22.372881 0,0 0.677968,12.20339 0,-2.711864 C 84.0678,23.728814 77.288135,18.983051 77.288135,18.983051 Z"
       id="path3405"
       inkscape:connector-curvature="0" />
    <path
       style="fill:#ffb380;fill-rule:evenodd;stroke:#ed0000;stroke-width:0.80000001px;stroke-linecap:butt;stroke-linejoin:miter;stroke-opacity:1"
       d="m 22.160636,17.853047 c -1.355933,23.050848 -7.457625,22.372878 -7.457625,22.372878 0,0 -0.677968,12.20339 0,-2.71186 0.67796,-14.915255 7.457625,-19.661018 7.457625,-19.661018 z"
       id="path3405-7"
       inkscape:connector-curvature="0" />
  </g>
  <path
     style="fill:#ffe680;fill-opacity:1;stroke:#ed0000;stroke-width:0.84745765;stroke-miterlimit:4;stroke-dasharray:none;stroke-opacity:1"
     d="m 93.187545,49.583944 c -8.00494,-4.881365 -9.420159,-14.409213 -3.168165,-21.329423 4.128976,-4.570282 6.204762,-4.482761 6.224149,0.262428 0.02606,6.379563 2.429474,15.619024 5.731561,22.033898 0.68235,1.32559 -6.285339,0.558928 -8.787545,-0.966903 z"
     id="path4290"
     inkscape:connector-curvature="0"
     transform="scale(0.8,0.8)" />
  <path
     style="fill:#ffe680;fill-opacity:1;stroke:#ed0000;stroke-width:0.84745765;stroke-miterlimit:4;stroke-dasharray:none;stroke-opacity:1"
     d="m 106.91047,48.547558 c -0.20385,-0.646072 -0.59728,-3.374244 -0.8743,-6.062605 -0.61191,-5.93845 -2.98289,-12.426339 -5.97453,-16.348583 l -2.224168,-2.916031 1.949908,0.01861 c 2.75403,0.02629 8.39195,2.779304 10.5799,5.166203 3.89986,4.254465 4.66762,9.853966 2.05341,14.976065 -2.0897,4.094394 -4.99035,6.814023 -5.51022,5.166339 z"
     id="path4292"
     inkscape:connector-curvature="0"
     transform="scale(0.8,0.8)" />
  <path
     style="fill:#ffe680;fill-opacity:1;stroke:#ed0000;stroke-width:0.84745765;stroke-miterlimit:4;stroke-dasharray:none;stroke-opacity:1"
     d="m 13.515936,45.27665 c -1.6413,-2.480171 -2.228452,-4.456303 -2.228452,-7.500122 0,-7.380669 3.93083,-12.23493 11.344575,-14.009644 l 2.250704,-0.538777 -2.907684,5.716455 c -2.01014,3.951899 -3.215939,7.8746 -3.906307,12.70798 -0.549241,3.845339 -1.296918,6.991526 -1.661503,6.991526 -0.364585,0 -1.665685,-1.515338 -2.891333,-3.367418 z"
     id="path4294"
     inkscape:connector-curvature="0"
     transform="scale(0.8,0.8)" />
  <path
     style="fill:#ffe680;fill-opacity:1;stroke:#ed0000;stroke-width:0.84745765;stroke-miterlimit:4;stroke-dasharray:none;stroke-opacity:1"
     d="m 20.805085,50.800347 c 0,-0.212352 0.947942,-1.782965 2.106537,-3.490251 2.506058,-3.692882 3.45267,-6.873724 4.760373,-15.995981 0.537921,-3.752424 1.099646,-6.961429 1.248277,-7.131121 0.148631,-0.169693 1.60582,0.516903 3.238197,1.525768 11.669521,7.21216 6.477983,25.477679 -7.241421,25.477679 -2.26158,0 -4.111963,-0.173743 -4.111963,-0.386094 z"
     id="path4296"
     inkscape:connector-curvature="0"
     transform="scale(0.8,0.8)" />
  <path
     style="fill:#ffe680;fill-opacity:1;stroke:#ed0000;stroke-width:0.84745765;stroke-miterlimit:4;stroke-dasharray:none;stroke-opacity:1"
     d="m 39.24368,175.71165 c -20.637046,-1.48074 -27.778585,-5.09162 -20.719274,-10.47602 4.101024,-3.12801 17.438585,-9.24973 28.128136,-12.91036 12.429121,-4.25635 18.636293,-4.34679 30.084746,-0.43834 10.955481,3.74015 26.149462,11.28065 29.198542,14.49072 2.48337,2.61448 2.49023,2.64914 0.84746,4.28337 -4.82876,4.80365 -37.221648,7.226 -67.53961,5.05063 z"
     id="path4298"
     inkscape:connector-curvature="0"
     transform="scale(0.8,0.8)" />
  <path
     style="fill:#ffe680;fill-opacity:1;fill-rule:evenodd;stroke:#ed0000;stroke-width:0.3540366px;stroke-linecap:butt;stroke-linejoin:miter;stroke-opacity:1"
     d="m 44.495452,96.606395 c -3.533771,-1.504609 -0.70725,-16.208202 2.5956,-12.815402 3.05891,3.142213 -1.61656,12.342126 -2.5956,12.815402 z"
     id="path4146"
     inkscape:connector-curvature="0" />
  <path
     style="fill:#ffe680;fill-opacity:1;fill-rule:evenodd;stroke:#ed0000;stroke-width:0.3540366px;stroke-linecap:butt;stroke-linejoin:miter;stroke-opacity:1"
     d="m 55.872484,96.572493 c 3.53377,-1.504608 0.70725,-16.208202 -2.5956,-12.815402 -3.05891,3.142213 1.61656,12.342127 2.5956,12.815402 z"
     id="path4146-3"
     inkscape:connector-curvature="0" />
</svg>
