<?xml version="1.0" encoding="UTF-8" standalone="no"?>
<!-- Created with Inkscape (http://www.inkscape.org/) -->

<svg
   xmlns:dc="http://purl.org/dc/elements/1.1/"
   xmlns:cc="http://creativecommons.org/ns#"
   xmlns:rdf="http://www.w3.org/1999/02/22-rdf-syntax-ns#"
   xmlns:svg="http://www.w3.org/2000/svg"
   xmlns="http://www.w3.org/2000/svg"
   xmlns:sodipodi="http://sodipodi.sourceforge.net/DTD/sodipodi-0.dtd"
   xmlns:inkscape="http://www.inkscape.org/namespaces/inkscape"
   width="100mm"
   height="100mm"
   viewBox="0 0 100 100"
   version="1.1"
   id="svg8"
   inkscape:version="0.92.3 (2405546, 2018-03-11)"
   sodipodi:docname="Forkopolis.svg"
   inkscape:export-filename="C:\Users\aly\Forkopolis.png"
   inkscape:export-xdpi="1200"
   inkscape:export-ydpi="1200">
  <defs
     id="defs2">
    <clipPath
       clipPathUnits="userSpaceOnUse"
       id="clipPath5006">
      <g
         id="g5012"
         style="stroke-width:0.99999994">
        <ellipse
           ry="26.593319"
           rx="18.174328"
           cy="163.01863"
           cx="293.72128"
           id="ellipse5008"
           style="fill:#961c25;fill-opacity:1;fill-rule:evenodd;stroke:#00ccff;stroke-width:0;stroke-linejoin:round;stroke-miterlimit:4;stroke-dasharray:none;stroke-opacity:1" />
        <rect
           y="193.01434"
           x="247.70648"
           height="116.79678"
           width="92.475258"
           id="rect5010"
           style="fill:#961c25;fill-opacity:1;fill-rule:evenodd;stroke:#00ccff;stroke-width:0;stroke-linejoin:round;stroke-miterlimit:4;stroke-dasharray:none;stroke-opacity:1" />
      </g>
    </clipPath>
    <clipPath
       clipPathUnits="userSpaceOnUse"
       id="clipPath5039">
      <g
         id="g5047"
         style="stroke-width:0.99999994">
        <g
           id="g5045"
           style="stroke-width:0.99999994">
          <rect
             style="fill:#961c25;fill-opacity:1;fill-rule:evenodd;stroke:#00ccff;stroke-width:0;stroke-linejoin:round;stroke-miterlimit:4;stroke-dasharray:none;stroke-opacity:1"
             id="rect5041"
             width="99.691536"
             height="121.87491"
             x="274.74524"
             y="131.0799" />
          <rect
             style="fill:#961c25;fill-opacity:1;fill-rule:evenodd;stroke:#00ccff;stroke-width:0;stroke-linejoin:round;stroke-miterlimit:4;stroke-dasharray:none;stroke-opacity:1"
             id="rect5043"
             width="99.691544"
             height="121.87491"
             x="246.59499"
             y="194.84773" />
        </g>
      </g>
    </clipPath>
    <clipPath
       clipPathUnits="userSpaceOnUse"
       id="clipPath5049">
      <ellipse
         style="fill:#0000ff;fill-opacity:1;fill-rule:evenodd;stroke:#00ccff;stroke-width:0;stroke-linejoin:round;stroke-miterlimit:4;stroke-dasharray:none;stroke-opacity:1"
         id="ellipse5051"
         cx="314.702"
         cy="167.82945"
         rx="60.00201"
         ry="37.016827" />
    </clipPath>
    <clipPath
       clipPathUnits="userSpaceOnUse"
       id="clipPath5065">
      <path
         style="fill:#0000ff;stroke:#000000;stroke-width:0.26458332px;stroke-linecap:butt;stroke-linejoin:miter;stroke-opacity:1"
         d="m 278.33024,148.91116 c 0,0.57908 0,1.15816 0,1.73725 0,0.0324 0.004,0.3966 0,0.4009 -0.0315,0.0315 -0.10212,-0.0315 -0.13364,0 -0.0315,0.0315 0,0.0891 0,0.13364 0,0.0445 0,0.0891 0,0.13363 0,0.35636 0,0.71272 0,1.06908 0,0.75726 0,1.51453 0,2.27179 0,0.35636 0,0.71272 0,1.06908 0,0.0445 0,0.0891 0,0.13363 0,0.0445 -0.0315,0.10214 0,0.13364 0.0315,0.0315 0.10213,-0.0315 0.13364,0 0.0668,0.0668 -0.0668,0.33409 0,0.4009 0.0315,0.0315 0.10213,-0.0315 0.13365,0 0.063,0.063 -0.0398,0.18759 0,0.26727 0.0282,0.0564 0.10546,0.0773 0.13361,0.13364 0.0265,0.053 -0.0273,0.37358 0,0.4009 0.0315,0.0315 0.10216,-0.0315 0.13364,0 0.0315,0.0315 0,0.0891 0,0.13364 0,0.26726 0,0.53454 0,0.8018 0,0.93545 0,1.87089 0,2.80633 0,0.0324 -0.004,0.39661 0,0.40091 0.0315,0.0315 0.10216,-0.0315 0.13364,0 0.0315,0.0315 0,0.0891 0,0.13363 0,0.22273 0,0.44545 0,0.66818 0,0.0445 -0.0315,0.10213 0,0.13363 0.0315,0.0315 0.10213,-0.0315 0.13364,0 0.0322,0.0322 -0.0322,0.50238 0,0.53454 0.0315,0.0315 0.10213,-0.0315 0.13364,0 0.0315,0.0315 0,0.0891 0,0.13363 0,0.063 -0.006,0.66212 0,0.66818 0.0315,0.0315 0.10213,-0.0315 0.13362,0 0.005,0.005 0,0.48546 0,0.53454 0,0.0324 -0.004,0.39661 0,0.4009 0.0315,0.0315 0.10215,-0.0315 0.13364,0 0.063,0.063 -0.063,0.20428 0,0.26727 0.0315,0.0315 0.10213,-0.0315 0.13364,0 0.0668,0.0668 -0.0668,0.33409 0,0.40091 0.0315,0.0315 0.13364,-0.0445 0.13364,0 0,0.0445 -0.13364,-0.0445 -0.13364,0 0,0.063 0.10546,0.0773 0.13364,0.13363 0.0398,0.0797 -0.0399,0.18759 0,0.26727 0.0281,0.0564 0.10547,0.0773 0.13362,0.13364 0.0399,0.0797 -0.063,0.20427 0,0.26727 0.0315,0.0315 0.0938,-0.0199 0.13364,0 0.0564,0.0282 0.0773,0.10546 0.13364,0.13363 0.0399,0.0199 0.13364,-0.0445 0.13364,0 0,0.0445 -0.1782,0 -0.13364,0 0.13364,0 0.26725,0 0.4009,0 0.0446,0 0.0891,0 0.13364,0 0.0446,0 0.0938,0.0199 0.13364,0 0.20465,-0.10234 0.10448,-0.23814 0.26725,-0.4009 0.32459,-0.32458 0.19624,0.0397 0.40093,-0.26727 0.0553,-0.0829 0.0632,-0.19684 0.13361,-0.26727 0.0315,-0.0315 0.0891,0 0.13364,0 0.0891,-0.0445 0.21201,-0.0508 0.26728,-0.13364 0.0494,-0.0741 -0.0282,-0.18275 0,-0.26727 0.0886,-0.26592 0.12473,-0.0624 0.26726,-0.13363 0.29549,-0.14774 0.0415,-0.0829 0.13364,-0.26727 0.0282,-0.0564 0.10546,-0.0773 0.13364,-0.13364 0.0204,-0.0407 0,-0.34072 0,-0.4009 0,-0.26727 0,-0.53454 0,-0.80181 0,-0.0445 0,-0.0891 0,-0.13364 0,-0.0445 -0.0198,-0.0938 0,-0.13363 0.0281,-0.0563 0.10546,-0.0773 0.13362,-0.13363 0.0398,-0.0797 -0.0282,-0.18275 0,-0.26727 0.0315,-0.0945 0.10948,-0.17064 0.13364,-0.26727 0.0439,-0.17571 -0.0553,-0.50221 0,-0.66818 0.0198,-0.0598 0.0891,-0.0891 0.13364,-0.13363 0.0445,-0.0891 0.10948,-0.17064 0.13364,-0.26727 0.0217,-0.0864 -0.0282,-0.18275 0,-0.26727 0.0198,-0.0598 0.10546,-0.0773 0.13361,-0.13363 0.0399,-0.0797 -0.0398,-0.18759 0,-0.26728 0.0282,-0.0563 0.10547,-0.0773 0.13365,-0.13363 0.0175,-0.0351 0,-0.46466 0,-0.53454 0,-0.48999 0,-0.97999 0,-1.46998 0,-0.12586 -0.0254,-0.59216 0,-0.66818 0.0198,-0.0598 0.10546,-0.0773 0.13364,-0.13363 0.0399,-0.0797 -0.0398,-0.18759 0,-0.26727 0.0282,-0.0563 0.10546,-0.0773 0.13364,-0.13363 0.0198,-0.0399 -0.0199,-0.0938 0,-0.13364 0.0282,-0.0563 0.11372,-0.0739 0.13361,-0.13363 0.0282,-0.0845 0,-0.17818 0,-0.26727 0,-0.0446 -0.0198,-0.0938 0,-0.13364 0.0282,-0.0563 0.11372,-0.0739 0.13364,-0.13363 0.0282,-0.0845 -0.0217,-0.18084 0,-0.26727 0.0241,-0.0966 0.10216,-0.17278 0.13364,-0.26727 0.014,-0.0423 -0.014,-0.0914 0,-0.13364 0.063,-0.18899 0.21895,-0.34127 0.26729,-0.53454 0.0217,-0.0864 -0.0282,-0.18275 0,-0.26727 0.0198,-0.0598 0.10543,-0.0773 0.13361,-0.13363 0.0394,-0.0789 -0.0306,-0.30899 0,-0.4009 0.0315,-0.0945 0.10216,-0.17278 0.13364,-0.26727 0.0251,-0.0754 0,-0.3131 0,-0.40091 0,-0.26727 0,-0.53454 0,-0.80181 0,-0.0602 -0.0204,-0.36023 0,-0.4009 0.0282,-0.0564 0.10546,-0.0773 0.13364,-0.13364 0.0265,-0.053 -0.0273,-0.37358 0,-0.4009 0.0315,-0.0315 0.0891,0 0.13364,0 0.0445,-0.0446 0.0987,-0.0812 0.13362,-0.13363 0.0167,-0.0249 0.25871,-0.52598 0.26728,-0.53454 0.0704,-0.0704 0.17817,-0.0891 0.26726,-0.13364 0.96893,-0.48446 -0.2113,0.14086 0.40092,-0.26727 0.0249,-0.0166 0.52596,-0.2587 0.53454,-0.26727 0.14086,-0.14086 0.12639,-0.39367 0.26725,-0.53454 0.24937,-0.24935 0.39151,-0.0621 0.53454,-0.13363 0.0563,-0.0282 0.0812,-0.0987 0.13364,-0.13364 0.0829,-0.0553 0.18439,-0.0784 0.26728,-0.13363 0.0524,-0.0349 0.0739,-0.11372 0.13362,-0.13364 0.0845,-0.0282 0.18084,0.0216 0.26728,0 0.19325,-0.0483 0.34957,-0.19328 0.53454,-0.26726 1.32963,-0.44322 -0.31499,0.12599 0.66818,-0.26727 0.13078,-0.0523 0.27011,-0.0813 0.40089,-0.13364 0.0925,-0.037 0.1696,-0.1141 0.26729,-0.13363 0.13102,-0.0262 0.26908,0.022 0.40089,0 0.13893,-0.0232 0.26726,-0.0891 0.4009,-0.13364 0.13364,-0.0445 0.27011,-0.0813 0.4009,-0.13363 0.0925,-0.037 0.16959,-0.11411 0.26728,-0.13364 0.13105,-0.0262 0.2686,0.0189 0.40089,0 0.18183,-0.026 0.35272,-0.10766 0.53454,-0.13363 0.13229,-0.0189 0.26988,0.0262 0.40092,0 0.0977,-0.0195 0.1696,-0.1141 0.26726,-0.13364 0.13105,-0.0262 0.26728,0 0.4009,0 0.13364,-0.0445 0.26426,-0.0995 0.40092,-0.13363 0.11314,-0.0283 0.39579,0 0.53454,0 0.2349,0 0.59272,-0.0349 0.80179,0 0.13896,0.0231 0.26197,0.11048 0.40092,0.13363 0.13182,0.022 0.26861,-0.0189 0.4009,0 1.4477,0.36193 -0.36732,-0.0459 1.06908,0.13364 0.18224,0.0228 0.35229,0.11085 0.53453,0.13363 0.1768,0.0221 0.35637,0 0.53454,0 0.5791,0 1.15816,0 1.73726,0 0.0576,0 0.76565,-0.0181 0.80182,0 0.11268,0.0564 0.16242,0.19738 0.26725,0.26727 0.35031,0.23353 0.23355,0.0499 0.66818,0.26727 0.0564,0.0282 0.0773,0.10546 0.13364,0.13364 0.80711,0.40356 0.0566,-0.0193 0.66815,0.13363 0.24189,-0.0805 0.24855,0.21648 0.40093,0.26727 0.0845,0.0282 0.18084,-0.0216 0.26725,0 0.64532,0.16133 -0.007,0.0635 0.40093,0.26727 0.0797,0.0398 0.18756,-0.0398 0.26725,0 0.0564,0.0282 0.0773,0.10546 0.13364,0.13363 0.0398,0.0199 0.10213,-0.0315 0.13364,0 0.0315,0.0315 -0.0315,0.10214 0,0.13364 0.35634,0 -0.0446,-0.0445 0.13362,0.13363 0.063,0.063 0.20428,-0.063 0.26728,0 0.0315,0.0315 -0.0315,0.10214 0,0.13364 0.063,0.063 0.18759,-0.0398 0.26726,0 0.0564,0.0282 0.0773,0.10546 0.13364,0.13363 0.0399,0.0199 0.10215,-0.0315 0.13364,0 0.0315,0.0315 -0.0315,0.10214 0,0.13364 0.0315,0.0315 0.10213,-0.0315 0.13364,0 0.0315,0.0315 -0.0315,0.10213 0,0.13363 0.0315,0.0315 0.10213,-0.0315 0.13364,0 0.0315,0.0315 -0.0315,0.10214 0,0.13364 0.0315,0.0315 0.10213,-0.0315 0.13361,0 0.27649,0.27649 -0.42251,-0.0108 0.13365,0.26727 0.0797,0.0398 0.20428,-0.063 0.26728,0 0.063,0.063 -0.0398,0.18758 0,0.26727 0.27807,0.55615 -0.009,-0.14286 0.26725,0.13363 0.063,0.063 -0.063,0.20428 0,0.26727 0.0315,0.0315 0.0938,-0.0199 0.13364,0 0.55616,0.27808 -0.14287,-0.009 0.13365,0.26727 0.0315,0.0315 0.10212,-0.0315 0.13361,0 0.063,0.063 -0.063,0.20427 0,0.26727 0.35637,0 -0.0445,-0.0445 0.13364,0.13363 0.0315,0.0315 0.10213,-0.0315 0.13364,0 0.0273,0.0273 -0.0265,0.34792 0,0.40091 0.0282,0.0563 0.10546,0.0773 0.13364,0.13363 0.0398,0.0797 -0.0399,0.18759 0,0.26727 0.0282,0.0564 0.10547,0.0773 0.13362,0.13364 0.0265,0.053 -0.0273,0.37358 0,0.4009 0.0315,0.0315 0.10215,-0.0315 0.13364,0 0.005,0.005 0,0.48547 0,0.53454 0,1.15817 0,2.31634 0,3.4745 0,0.66818 0,1.33635 0,2.00453 0,0.0445 0,0.0891 0,0.13363 0,0.0446 -0.0315,0.10214 0,0.13364 0.0315,0.0315 0.10213,-0.0315 0.13364,0 0.0273,0.0273 -0.0265,0.34792 0,0.4009 0.0282,0.0564 0.10546,0.0773 0.13364,0.13363 0.0198,0.0399 0,0.0891 0,0.13364 0,0.22273 0,0.44545 0,0.66817 0,0.0446 0,0.0891 0,0.13364 0,0.0445 -0.0198,0.0938 0,0.13363 0.0282,0.0563 0.10546,0.0773 0.13362,0.13364 0.0362,0.0725 -0.0366,0.49797 0,0.53454 0.0315,0.0315 0.10215,-0.0315 0.13364,0 0.063,0.063 -0.063,0.20427 0,0.26727 0.0315,0.0315 0.0891,0 0.13364,0 0.0446,0 0.0891,0 0.13364,0 0.35634,0 -0.0445,-0.0445 0.13364,0.13363 0.063,0.063 0.20426,-0.063 0.26725,0 0.0315,0.0315 -0.0315,0.10214 0,0.13364 0.0315,0.0315 0.10213,-0.0315 0.13365,0 0.0315,0.0315 -0.0198,0.0938 0,0.13363 0.27807,0.55616 -0.009,-0.14286 0.26725,0.13363 0.0315,0.0315 -0.0315,0.10214 0,0.13364 0.0315,0.0315 0.10216,-0.0315 0.13364,0 0.0315,0.0315 -0.0315,0.10214 0,0.13364 0.0891,0.089 0.17823,-0.0891 0.26728,0 0.0315,0.0315 -0.0315,0.10213 0,0.13363 0.0315,0.0315 0.0938,-0.0199 0.13362,0 0.0564,0.0282 0.0773,0.10546 0.13364,0.13363 0.0351,0.0176 0.46466,0 0.53454,0 0.0446,0 0.0891,0 0.13364,0 0.0446,0 0.13364,-0.0445 0.13364,0 0,0.0446 -0.1782,0 -0.13364,0 0.13364,0 0.26725,0 0.4009,0 0.0446,0 0.10215,0.0315 0.13364,0 0.0315,-0.0315 -0.0198,-0.0938 0,-0.13363 0.0658,-0.1315 0.46879,-0.40304 0.53453,-0.53454 0.0199,-0.0398 -0.0315,-0.10214 0,-0.13363 0.0315,-0.0315 0.10213,0.0315 0.13365,0 0.0315,-0.0315 -0.0315,-0.10214 0,-0.13364 0.0315,-0.0315 0.0938,0.0199 0.13364,0 0.0563,-0.0282 0.0891,-0.0891 0.13361,-0.13363 0.0446,-0.0445 0.10546,-0.0773 0.13364,-0.13364 0.0922,-0.18433 -0.16184,-0.11953 0.13364,-0.26727 0.0398,-0.0199 0.10213,0.0315 0.13364,0 0.0668,-0.0668 -0.0668,-0.33408 0,-0.4009 0.0315,-0.0315 0.10213,0.0315 0.13362,0 0.004,-0.004 0,-0.3685 0,-0.40091 0,-0.66817 0,-1.33634 0,-2.00452 0,-0.0324 -0.004,-0.39661 0,-0.4009 0.0315,-0.0315 0.10215,0.0315 0.13364,0 0.0322,-0.0322 -0.0321,-0.50239 0,-0.53454 0.0315,-0.0315 0.10213,0.0315 0.13364,0 0.0315,-0.0315 0,-0.0891 0,-0.13364 0,-0.31181 0,-0.62362 0,-0.93544 0,-0.0699 -0.0175,-0.4994 0,-0.53454 0.0282,-0.0563 0.10546,-0.0773 0.13364,-0.13363 0.0241,-0.0483 0,-0.57523 0,-0.66818 0,-0.53454 0,-1.06908 0,-1.60361 0,-0.8909 0,-1.7818 0,-2.6727 0,-0.0324 0.004,-0.3966 0,-0.4009 -0.0315,-0.0315 -0.10215,0.0315 -0.13364,0 -0.063,-0.063 0.0398,-0.18759 0,-0.26727 -0.0282,-0.0564 -0.10546,-0.0773 -0.13364,-0.13364 -0.0398,-0.0797 0.0399,-0.18758 0,-0.26727 -0.27808,-0.55615 0.009,0.14286 -0.26726,-0.13363 -0.0315,-0.0315 0.0315,-0.10214 0,-0.13364 -0.0315,-0.0315 -0.10215,0.0315 -0.13364,0 -0.0315,-0.0315 0.0315,-0.10213 0,-0.13363 -0.0315,-0.0315 -0.10213,0.0315 -0.13364,0 -0.063,-0.063 0.063,-0.20428 0,-0.26727 -0.0315,-0.0315 -0.10213,0.0315 -0.13364,0 -0.063,-0.063 0.0398,-0.18759 0,-0.26727 -0.0282,-0.0564 -0.10546,-0.0773 -0.13361,-0.13364 -0.0199,-0.0398 0.0315,-0.10213 0,-0.13363 -0.0315,-0.0315 -0.10216,0.0315 -0.13364,0 -0.0315,-0.0315 0.0315,-0.10214 0,-0.13363 -0.0315,-0.0315 -0.10213,0.0315 -0.13365,0 -0.0273,-0.0273 0.0265,-0.34792 0,-0.40091 -0.0282,-0.0563 -0.10546,-0.0773 -0.13364,-0.13363 -0.0198,-0.0399 0.0315,-0.10214 0,-0.13364 -0.0315,-0.0315 -0.10213,0.0315 -0.13361,0 -0.0668,-0.0668 0.0668,-0.33408 0,-0.4009 -0.0315,-0.0315 -0.10216,0.0315 -0.13364,0 -0.0315,-0.0315 0.0315,-0.10214 0,-0.13364 -0.27649,-0.27649 0.0109,0.42252 -0.26728,-0.13363 -0.0399,-0.0797 0.0399,-0.18759 0,-0.26727 -0.0563,-0.11269 -0.21093,-0.15458 -0.26726,-0.26727 -0.0399,-0.0797 0.0398,-0.18759 0,-0.26727 -0.0282,-0.0563 -0.10546,-0.0773 -0.13364,-0.13364 -0.0198,-0.0398 0.0315,-0.10213 0,-0.13363 -0.0315,-0.0315 -0.10213,0.0315 -0.13364,0 -0.063,-0.063 0.063,-0.20427 0,-0.26727 -0.0315,-0.0315 -0.10213,0.0315 -0.13364,0 -0.0668,-0.0668 0.0668,-0.33409 0,-0.40091 -0.0315,-0.0315 -0.10213,0.0315 -0.13362,0 -0.063,-0.063 0.063,-0.20427 0,-0.26726 -0.0315,-0.0315 -0.10215,0.0315 -0.13364,0 -0.0668,-0.0668 0.0668,-0.33409 0,-0.40091 -0.0315,-0.0315 -0.10213,0.0315 -0.13364,0 -0.063,-0.063 0.063,-0.20427 0,-0.26727 -0.0315,-0.0315 -0.10213,0.0315 -0.13364,0 -0.063,-0.063 0.0399,-0.18758 0,-0.26727 -0.0282,-0.0563 -0.10546,-0.0773 -0.13362,-0.13363 -0.0399,-0.0797 0.063,-0.20428 0,-0.26727 -0.0315,-0.0315 -0.10215,0.0315 -0.13364,0 -0.0315,-0.0315 0.0315,-0.10214 0,-0.13364 -0.0315,-0.0315 -0.10213,0.0315 -0.13364,0 -0.0322,-0.0322 0.0321,-0.50238 0,-0.53453 -0.27649,-0.2765 0.0109,0.42252 -0.26725,-0.13364 -0.0199,-0.0398 0.0198,-0.0938 0,-0.13364 -0.0282,-0.0563 -0.10547,-0.0773 -0.13364,-0.13363 -0.0198,-0.0398 0,-0.0891 0,-0.13364 -0.0445,-0.0445 -0.10547,-0.0773 -0.13365,-0.13363 -0.0198,-0.0398 0.0199,-0.0938 0,-0.13363 -0.0282,-0.0563 -0.10546,-0.0773 -0.13364,-0.13364 -0.0534,-0.10691 0.0535,-0.29399 0,-0.4009 -0.0282,-0.0564 -0.10546,-0.0773 -0.13361,-0.13364 -0.0198,-0.0398 0.0315,-0.10213 0,-0.13363 -0.0315,-0.0315 -0.11372,0.0398 -0.13364,0 -0.11954,-0.10542 0.0598,-0.28138 0,-0.40091 -0.0282,-0.0563 -0.11372,-0.0739 -0.13364,-0.13363 -0.0563,-0.16904 0.0432,-0.36168 0,-0.53454 -0.16132,-0.64531 -0.0635,0.007 -0.26728,-0.40091 -0.0398,-0.0797 0.0399,-0.18758 0,-0.26726 -0.0563,-0.1127 -0.2109,-0.15458 -0.26726,-0.26727 -0.0198,-0.0399 0.0315,-0.10214 0,-0.13364 -0.0315,-0.0315 -0.10213,0.0315 -0.13364,0 -0.0315,-0.0315 0.0198,-0.0938 0,-0.13363 -0.0282,-0.0563 -0.0891,-0.0891 -0.13364,-0.13364 -0.0445,-0.0445 -0.0773,-0.10546 -0.13362,-0.13363 -0.0399,-0.0199 -0.10215,0.0315 -0.13364,0 -0.0315,-0.0315 0.0199,-0.0938 0,-0.13364 -0.27808,-0.55615 0.009,0.14286 -0.26728,-0.13363 -0.0315,-0.0315 0.0198,-0.0938 0,-0.13364 -0.0282,-0.0563 -0.0891,-0.0891 -0.13361,-0.13363 -0.0446,-0.0446 -0.0773,-0.10546 -0.13365,-0.13364 -0.0399,-0.0199 -0.0938,0.0199 -0.13364,0 -0.0564,-0.0282 -0.0891,-0.0891 -0.13364,-0.13363 -0.0445,-0.0446 -0.10546,-0.0773 -0.13361,-0.13364 -0.0198,-0.0398 0.0198,-0.0938 0,-0.13363 -0.0564,-0.11269 -0.19741,-0.16244 -0.26728,-0.26727 -0.0552,-0.0829 -0.0632,-0.19684 -0.13365,-0.26727 -0.0704,-0.0704 -0.19682,-0.0632 -0.26725,-0.13364 -0.0704,-0.0704 -0.0784,-0.18439 -0.13364,-0.26726 -0.035,-0.0524 -0.0987,-0.0812 -0.13364,-0.13364 -0.0552,-0.0829 -0.0784,-0.18439 -0.13364,-0.26727 -0.10967,-0.16453 -0.15756,-0.10273 -0.26726,-0.26727 -0.0552,-0.0829 -0.0784,-0.18439 -0.13364,-0.26727 -0.16452,-0.2468 -0.10274,-0.0205 -0.26726,-0.26727 -0.0553,-0.0829 -0.0632,-0.19683 -0.13364,-0.26727 -0.0704,-0.0704 -0.18439,-0.0784 -0.26728,-0.13363 -0.10483,-0.0699 -0.15457,-0.21093 -0.26726,-0.26727 -0.0399,-0.0199 -0.0938,0.0199 -0.13364,0 -0.0713,-0.0357 -0.19597,-0.23162 -0.26725,-0.26727 -0.0398,-0.0199 -0.0938,0.0199 -0.13364,0 -0.11269,-0.0564 -0.16246,-0.19738 -0.26729,-0.26727 -0.28569,-0.19048 -0.6224,-0.27569 -0.93543,-0.4009 -0.0925,-0.037 -0.17478,-0.0967 -0.26728,-0.13364 -0.26157,-0.10463 -0.53454,-0.17818 -0.8018,-0.26727 -0.13364,-0.0445 -0.26423,-0.0995 -0.40089,-0.13363 -0.0432,-0.0108 -0.0904,0.0108 -0.13364,0 -0.44379,-0.11095 -0.43553,-0.20478 -0.93546,-0.26727 -0.2652,-0.0332 -0.53454,0 -0.8018,0 -0.57909,0 -1.15816,0 -1.73725,0 -0.66818,0 -1.33636,0 -2.00454,0 -0.2227,0 -0.44542,0 -0.66815,0 -0.13364,0 -0.26863,-0.0189 -0.40092,0 -0.1818,0.026 -0.35634,0.0891 -0.53454,0.13363 -0.35634,0.0891 -0.71588,0.16636 -1.06908,0.26727 -0.13544,0.0387 -0.26146,0.11371 -0.40089,0.13363 -0.1764,0.0252 -0.35775,-0.0221 -0.53454,0 -0.18225,0.0228 -0.35637,0.0891 -0.53454,0.13364 -0.17819,0.0446 -0.35795,0.0832 -0.53454,0.13364 -0.13544,0.0387 -0.26278,0.106 -0.40089,0.13363 -0.0874,0.0175 -0.17992,-0.0175 -0.26728,0 -0.13814,0.0276 -0.26729,0.0891 -0.4009,0.13364 -0.26728,0.0891 -0.52851,0.19894 -0.80182,0.26726 -0.0432,0.0108 -0.0891,0 -0.13364,0 -0.0891,0.0445 -0.17277,0.10214 -0.26726,0.13364 -0.0919,0.0306 -0.32205,-0.0394 -0.40089,0 -0.0564,0.0282 -0.0812,0.0987 -0.13365,0.13363 -0.16576,0.11051 -0.3688,0.15677 -0.53453,0.26727 -0.0524,0.035 -0.0739,0.11372 -0.13364,0.13364 -0.0845,0.0282 -0.18085,-0.0216 -0.26729,0 -0.0966,0.0241 -0.17817,0.0891 -0.26725,0.13363 -0.0891,0.0446 -0.17817,0.0891 -0.26728,0.13364 -0.17817,0.0891 -0.35634,0.17818 -0.53454,0.26727 -0.0891,0.0445 -0.18439,0.0784 -0.26726,0.13363 -0.0524,0.0349 -0.0739,0.11372 -0.13364,0.13364 -0.0845,0.0282 -0.18084,-0.0216 -0.26725,0 -0.38759,0.0969 -0.1564,0.10426 -0.40093,0.26727 -0.0829,0.0553 -0.18439,0.0784 -0.26725,0.13363 -0.1542,0.1028 -0.24673,0.29811 -0.40093,0.40091 -0.0829,0.0553 -0.19682,0.0632 -0.26725,0.13363 -0.0704,0.0704 -0.0632,0.19684 -0.13364,0.26727 -0.0704,0.0704 -0.18439,0.0784 -0.26726,0.13363 -0.11533,0.0769 -0.29654,0.29653 -0.40092,0.40091 -0.0703,0.0703 -0.36521,0.32953 -0.4009,0.4009 -0.0922,0.18433 0.16185,0.11954 -0.13364,0.26727 -0.0399,0.0199 -0.10213,-0.0315 -0.13361,0 -0.063,0.063 0.0398,0.18759 0,0.26727 -0.0282,0.0563 -0.0773,0.10546 -0.13364,0.13364 -0.0399,0.0199 -0.11372,-0.0398 -0.13365,0 -0.0399,0.0797 0.0282,0.18275 0,0.26727 -0.0198,0.0598 -0.10546,0.0773 -0.13364,0.13363 -0.0198,0.0398 0.0199,0.0938 0,0.13364 -0.0563,0.11269 -0.21092,0.15457 -0.26725,0.26727 -0.0398,0.0797 0.063,0.20427 0,0.26726 -0.0315,0.0315 -0.10216,-0.0315 -0.13364,0 -0.063,0.063 0.0399,0.18759 0,0.26728 -0.0282,0.0563 -0.10547,0.0773 -0.13364,0.13363 -0.0399,0.0797 0.0399,0.18758 0,0.26727 -0.0282,0.0563 -0.10547,0.0773 -0.13365,0.13363 -0.0198,0.0399 0.0315,0.10214 0,0.13364 -0.0315,0.0315 -0.0891,0 -0.13361,0 -0.0446,0.0445 -0.0987,0.0812 -0.13364,0.13363 -0.3891,0.58366 0.0592,-0.044 -0.13364,0.53454 -0.0198,0.0598 -0.10546,0.0773 -0.13364,0.13364 -0.0398,0.0797 0.0399,0.18758 0,0.26727 -0.0282,0.0563 -0.10547,0.0773 -0.13362,0.13363 -0.0399,0.0797 0.0398,0.18759 0,0.26727 -0.0564,0.11269 -0.21092,0.15458 -0.26728,0.26727 -0.0198,0.0398 0.0198,0.0938 0,0.13363 -0.0282,0.0563 -0.10546,0.0773 -0.13364,0.13364 -0.0198,0.0398 0.0315,0.10214 0,0.13364 -0.0315,0.0315 -0.10213,-0.0315 -0.13362,0 -0.063,0.063 0.0281,0.18275 0,0.26726 -0.0315,0.0945 -0.10215,0.17278 -0.13364,0.26727 -0.0306,0.0919 0.0394,0.32206 0,0.40091 -0.0282,0.0563 -0.10546,0.0773 -0.13364,0.13363 -0.042,0.084 0.042,0.45055 0,0.53454 -0.0282,0.0563 -0.10546,0.0773 -0.13364,0.13364 -0.0198,0.0398 0.0315,0.10213 0,0.13363 -0.0315,0.0315 -0.10213,-0.0315 -0.13364,0 -0.006,0.006 0,0.60517 0,0.66818 0,0.44544 0,0.89089 0,1.33634 0,0.0985 0.0222,0.61271 0,0.66818 -0.074,0.18496 -0.17817,0.35636 -0.26726,0.53454 z"
         id="path5067"
         inkscape:connector-curvature="0" />
    </clipPath>
    <clipPath
       clipPathUnits="userSpaceOnUse"
       id="clipPath5073">
      <rect
         style="fill:#0000ff;fill-opacity:1;fill-rule:evenodd;stroke:#2a3bea;stroke-width:0;stroke-linejoin:round;stroke-miterlimit:4;stroke-dasharray:none;stroke-opacity:1"
         id="rect5075"
         width="45.735119"
         height="56.696423"
         x="260.2366"
         y="125.20982" />
    </clipPath>
    <clipPath
       clipPathUnits="userSpaceOnUse"
       id="clipPath5089">
      <rect
         style="fill:#0000ff;fill-opacity:1;fill-rule:evenodd;stroke:#2a3bea;stroke-width:0;stroke-linejoin:round;stroke-miterlimit:4;stroke-dasharray:none;stroke-opacity:1"
         id="rect5091"
         width="39.555889"
         height="71.360962"
         x="272.79825"
         y="138.31432" />
    </clipPath>
    <clipPath
       clipPathUnits="userSpaceOnUse"
       id="clipPath5107">
      <rect
         style="fill:#ff00ff;fill-opacity:1;fill-rule:evenodd;stroke:#2a3bea;stroke-width:0;stroke-linejoin:round;stroke-miterlimit:4;stroke-dasharray:none;stroke-opacity:1"
         id="rect5109"
         width="95.25"
         height="95.25"
         x="-133.04762"
         y="185.72374"
         clip-path="none" />
    </clipPath>
    <mask
       id="a">
      <rect
         style="fill:#ffffff"
         y="0"
         x="0"
         width="176"
         height="20"
         rx="3"
         id="rect7" />
    </mask>
    <linearGradient
       gradientUnits="userSpaceOnUse"
       y1="0"
       x1="0"
       gradientTransform="scale(2.9664794,0.33709993)"
       id="b"
       x2="0"
       y2="59.329588">
      <stop
         offset="0"
         stop-color="#bbb"
         stop-opacity=".1"
         id="stop2" />
      <stop
         offset="1"
         stop-opacity=".1"
         id="stop4" />
    </linearGradient>
  </defs>
  <sodipodi:namedview
     id="base"
     pagecolor="#ffffff"
     bordercolor="#666666"
     borderopacity="1.0"
     inkscape:pageopacity="1"
     inkscape:pageshadow="2"
     inkscape:zoom="1.4142136"
     inkscape:cx="-55.043652"
     inkscape:cy="216.17162"
     inkscape:document-units="mm"
     inkscape:current-layer="g4722"
     showgrid="true"
     inkscape:window-width="1920"
     inkscape:window-height="1001"
     inkscape:window-x="-9"
     inkscape:window-y="-9"
     inkscape:window-maximized="1"
     inkscape:snap-global="false">
    <inkscape:grid
       type="xygrid"
       id="grid5093" />
  </sodipodi:namedview>
  <metadata
     id="metadata5">
    <rdf:RDF>
      <cc:Work
         rdf:about="">
        <dc:format>image/svg+xml</dc:format>
        <dc:type
           rdf:resource="http://purl.org/dc/dcmitype/StillImage" />
        <dc:title></dc:title>
      </cc:Work>
    </rdf:RDF>
  </metadata>
  <g
     inkscape:label="Layer 1"
     inkscape:groupmode="layer"
     id="layer1"
     transform="translate(0,-197)">
    <g
       id="g4722"
       transform="translate(-4.5357118,-58.586309)">
      <path
         style="fill:#000000;fill-opacity:1;fill-rule:evenodd;stroke:#2a3bea;stroke-width:0;stroke-linejoin:round;stroke-miterlimit:4;stroke-dasharray:none;stroke-opacity:1"
         d=""
         id="path5077"
         inkscape:connector-curvature="0"
         transform="matrix(0.26458333,0,0,0.26458333,4.5357118,58.586309)" />
      <g
         id="g4709"
         transform="matrix(0.95538901,0,0,0.95538901,2.4013085,13.373789)">
        <g
           transform="translate(144.05828,-32.836814)"
           id="g4609">
          <path
             sodipodi:type="star"
             style="fill:#2c262d;fill-opacity:1;fill-rule:evenodd;stroke:#2c262d;stroke-width:2.43876576;stroke-linejoin:miter;stroke-miterlimit:0;stroke-dasharray:none;stroke-opacity:1;paint-order:normal"
             id="path1055-7"
             sodipodi:sides="3"
             sodipodi:cx="-74.266258"
             sodipodi:cy="311.31271"
             sodipodi:r1="4.9388733"
             sodipodi:r2="2.4694366"
             sodipodi:arg1="-1.5707963"
             sodipodi:arg2="-0.52359878"
             inkscape:flatsided="true"
             inkscape:rounded="0"
             inkscape:randomized="0"
             d="m -74.266258,306.37384 4.277189,7.40831 -8.554379,0 z"
             inkscape:transform-center-y="-0.92041336"
             inkscape:transform-center-x="-4.2998326e-006"
             transform="matrix(0.69023524,0,0,0.57030249,-40.770553,149.06387)" />
          <rect
             style="fill:#d40000;fill-opacity:1;fill-rule:evenodd;stroke:#d40000;stroke-width:6.12041998;stroke-linejoin:miter;stroke-miterlimit:4;stroke-dasharray:none;stroke-opacity:1;paint-order:stroke markers fill"
             id="rect869"
             width="2.6820557"
             height="44.532436"
             x="-93.360123"
             y="331.7738" />
          <path
             inkscape:connector-curvature="0"
             style="fill:#aa8800;fill-opacity:1;fill-rule:evenodd;stroke-width:0.20242003"
             d="m -87.536717,296.37302 a 2.927383,3.8548741 0 0 0 -1.468822,7.19525 v 2.47572 l -2.937677,3.86845 -2.937623,-3.86845 v -2.47572 a 2.927383,3.8548741 0 0 0 -1.468866,-7.19525 2.927383,3.8548741 0 0 0 -1.468813,7.19525 v 3.44281 l 4.406491,5.80262 v 3.44291 a 2.927383,3.8548741 0 0 0 1.468811,7.19525 2.927383,3.8548741 0 0 0 1.468872,-7.19525 v -3.44291 l 4.406498,-5.80262 v -3.44281 a 2.927383,3.8548741 0 0 0 -1.468871,-7.19525 z m -8.812988,6.18941 c -0.969409,0 -1.762609,-1.0638 -1.762609,-2.32104 0,-1.25724 0.807911,-2.32105 1.762609,-2.32105 0.954738,0 1.762595,1.06381 1.762595,2.32105 0,1.25724 -0.807857,2.32104 -1.762595,2.32104 z m 4.406489,19.34211 c -0.9694,0 -1.762594,-1.06387 -1.762594,-2.32103 0,-1.25725 0.807903,-2.32106 1.762594,-2.32106 0.954752,0 1.762595,1.06381 1.762595,2.32106 0,1.25716 -0.807843,2.32103 -1.762595,2.32103 z m 4.406499,-19.34211 c -0.969395,0 -1.762596,-1.0638 -1.762596,-2.32104 0,-1.25724 0.807903,-2.32105 1.762596,-2.32105 0.954744,0 1.762594,1.06381 1.762594,2.32105 0,1.25724 -0.80785,2.32104 -1.762594,2.32104 z"
             id="path2-1-3-1-7-3-5-7-5"
             inkscape:export-xdpi="600"
             inkscape:export-ydpi="600" />
        </g>
        <path
           inkscape:export-ydpi="600"
           inkscape:export-xdpi="600"
           inkscape:connector-curvature="0"
           id="path5111"
           d="M 7.1815453,257.69048 H 102.43155 V 354.3412 H 7.1815453 Z"
           style="fill:none;stroke:#2c262d;stroke-width:4;stroke-linecap:butt;stroke-linejoin:round;stroke-miterlimit:4;stroke-dasharray:none;stroke-opacity:1;paint-order:stroke markers fill" />
        <path
           inkscape:connector-curvature="0"
           id="path848"
           d="M 11.944046,349.23635 H 96.610711"
           style="fill:none;stroke:#aa8800;stroke-width:2;stroke-linecap:butt;stroke-linejoin:round;stroke-miterlimit:4;stroke-dasharray:none;stroke-opacity:1" />
        <rect
           y="306.90308"
           x="56.923214"
           height="38.629246"
           width="38.629166"
           id="rect865-2-6"
           style="fill:#2c262d;fill-opacity:1;fill-rule:evenodd;stroke:#262630;stroke-width:1.99999964;stroke-linejoin:round;stroke-miterlimit:4;stroke-dasharray:none;stroke-opacity:1;paint-order:stroke markers fill" />
        <rect
           y="296.84918"
           x="64.331543"
           height="8.4667206"
           width="23.8125"
           id="rect912"
           style="fill:#2c262d;fill-opacity:1;fill-rule:evenodd;stroke:#262630;stroke-width:2;stroke-linejoin:round;stroke-miterlimit:4;stroke-dasharray:none;stroke-opacity:1;paint-order:stroke markers fill" />
        <rect
           y="286.79495"
           x="70.681549"
           height="8.4667215"
           width="11.112502"
           id="rect912-1"
           style="fill:#2c262d;fill-opacity:1;fill-rule:evenodd;stroke:#262630;stroke-width:2;stroke-linejoin:round;stroke-miterlimit:4;stroke-dasharray:none;stroke-opacity:1;paint-order:stroke markers fill" />
        <path
           inkscape:export-ydpi="600"
           inkscape:export-xdpi="600"
           id="path2-1-3-1-7"
           d="m 79.812674,264.11901 a 2.3789229,3.1326439 0 0 0 -1.193629,5.84718 v 2.01189 l -2.387289,3.14367 -2.387246,-3.14367 v -2.01189 a 2.3789229,3.1326439 0 0 0 -1.193666,-5.84718 2.3789229,3.1326439 0 0 0 -1.193623,5.84718 v 2.79779 l 3.580912,4.71547 v 2.79786 a 2.3789229,3.1326439 0 0 0 1.193623,5.84718 2.3789229,3.1326439 0 0 0 1.193671,-5.84718 v -2.79786 l 3.580918,-4.71547 v -2.79779 a 2.3789229,3.1326439 0 0 0 -1.193671,-5.84718 z m -7.16183,5.02979 c -0.787785,0 -1.432375,-0.86449 -1.432375,-1.88618 0,-1.02169 0.656544,-1.88619 1.432375,-1.88619 0.775863,0 1.432364,0.8645 1.432364,1.88619 0,1.02169 -0.656501,1.88618 -1.432364,1.88618 z m 3.580912,15.71828 c -0.787779,0 -1.432364,-0.86456 -1.432364,-1.88619 0,-1.02169 0.656538,-1.88619 1.432364,-1.88619 0.775874,0 1.432364,0.8645 1.432364,1.88619 0,1.02163 -0.65649,1.88619 -1.432364,1.88619 z m 3.580918,-15.71828 c -0.787775,0 -1.432364,-0.86449 -1.432364,-1.88618 0,-1.02169 0.656538,-1.88619 1.432364,-1.88619 0.775868,0 1.432363,0.8645 1.432363,1.88619 0,1.02169 -0.656495,1.88618 -1.432363,1.88618 z"
           style="fill:#2c262d;fill-opacity:1;fill-rule:evenodd;stroke-width:0.2645832"
           inkscape:connector-curvature="0" />
        <path
           inkscape:transform-center-x="1.7104213e-006"
           inkscape:transform-center-y="-5.7917108"
           d="m 33.155957,310.7819 20.063089,34.75029 -40.12618,0 z"
           inkscape:randomized="0"
           inkscape:rounded="0"
           inkscape:flatsided="true"
           sodipodi:arg2="-0.52359878"
           sodipodi:arg1="-1.5707963"
           sodipodi:r2="11.58343"
           sodipodi:r1="23.166861"
           sodipodi:cy="333.94876"
           sodipodi:cx="33.155956"
           sodipodi:sides="3"
           id="path1055"
           style="fill:#2c262d;fill-opacity:1;fill-rule:evenodd;stroke:#2c262d;stroke-width:1.99999988;stroke-linejoin:round;stroke-miterlimit:4;stroke-dasharray:none;stroke-opacity:1;paint-order:stroke markers fill"
           sodipodi:type="star" />
        <path
           inkscape:export-ydpi="600"
           inkscape:export-xdpi="600"
           id="path2-1-3-1-7-3"
           d="M 36.691629,287.96275 A 2.3789229,3.1326439 0 0 0 35.498,293.80993 v 2.01189 l -2.387289,3.14367 -2.387245,-3.14367 v -2.01189 a 2.3789229,3.1326439 0 0 0 -1.193666,-5.84718 2.3789229,3.1326439 0 0 0 -1.193623,5.84718 v 2.79779 l 3.580912,4.71547 v 2.79786 a 2.3789229,3.1326439 0 0 0 1.193622,5.84718 2.3789229,3.1326439 0 0 0 1.193671,-5.84718 v -2.79786 l 3.580918,-4.71547 v -2.79779 a 2.3789229,3.1326439 0 0 0 -1.193671,-5.84718 z m -7.161829,5.02979 c -0.787785,0 -1.432375,-0.86449 -1.432375,-1.88618 0,-1.02169 0.656544,-1.88619 1.432375,-1.88619 0.775863,0 1.432364,0.8645 1.432364,1.88619 0,1.02169 -0.656501,1.88618 -1.432364,1.88618 z m 3.580911,15.71828 c -0.787778,0 -1.432363,-0.86456 -1.432363,-1.88619 0,-1.02169 0.656538,-1.88619 1.432363,-1.88619 0.775874,0 1.432364,0.8645 1.432364,1.88619 0,1.02163 -0.65649,1.88619 -1.432364,1.88619 z m 3.580918,-15.71828 c -0.787774,0 -1.432364,-0.86449 -1.432364,-1.88618 0,-1.02169 0.656538,-1.88619 1.432364,-1.88619 0.775868,0 1.432363,0.8645 1.432363,1.88619 0,1.02169 -0.656495,1.88618 -1.432363,1.88618 z"
           style="fill:#2c262d;fill-opacity:1;fill-rule:evenodd;stroke:#2c262d;stroke-width:0.2645832;stroke-opacity:1"
           inkscape:connector-curvature="0" />
        <path
           inkscape:export-ydpi="600"
           inkscape:export-xdpi="600"
           id="path2-1-3-1-7-3-5"
           d="M 36.691629,321.82941 A 2.3789229,3.1326439 0 0 0 35.498,327.67659 v 2.01189 l -2.387289,3.14367 -2.387245,-3.14367 v -2.01189 a 2.3789229,3.1326439 0 0 0 -1.193666,-5.84718 2.3789229,3.1326439 0 0 0 -1.193623,5.84718 v 2.79779 l 3.580912,4.71547 v 2.79786 a 2.3789229,3.1326439 0 0 0 1.193622,5.84718 2.3789229,3.1326439 0 0 0 1.193671,-5.84718 v -2.79786 l 3.580919,-4.71547 v -2.79779 a 2.3789229,3.1326439 0 0 0 -1.193672,-5.84718 z M 29.5298,326.8592 c -0.787785,0 -1.432375,-0.86449 -1.432375,-1.88618 0,-1.02169 0.656544,-1.88619 1.432375,-1.88619 0.775863,0 1.432364,0.8645 1.432364,1.88619 0,1.02169 -0.656501,1.88618 -1.432364,1.88618 z m 3.580911,15.71828 c -0.787778,0 -1.432363,-0.86456 -1.432363,-1.88619 0,-1.02169 0.656538,-1.88619 1.432363,-1.88619 0.775874,0 1.432364,0.8645 1.432364,1.88619 0,1.02163 -0.65649,1.88619 -1.432364,1.88619 z m 3.580918,-15.71828 c -0.787773,0 -1.432364,-0.86449 -1.432364,-1.88618 0,-1.02169 0.656538,-1.88619 1.432364,-1.88619 0.775869,0 1.432364,0.8645 1.432364,1.88619 0,1.02169 -0.656495,1.88618 -1.432364,1.88618 z"
           style="fill:#d40000;fill-opacity:1;fill-rule:evenodd;stroke-width:0.2645832"
           inkscape:connector-curvature="0" />
        <path
           inkscape:export-ydpi="600"
           inkscape:export-xdpi="600"
           id="path2-1-3-1-7-3-5-7"
           d="m 81.905495,308.72033 a 3.8263819,5.0387054 0 0 0 -1.919896,9.40491 v 3.23601 l -3.839838,5.05645 -3.839767,-5.05645 v -3.23601 a 3.8263819,5.0387054 0 0 0 -1.919954,-9.40491 3.8263819,5.0387054 0 0 0 -1.919885,9.40491 v 4.5001 l 5.759723,7.5846 v 4.50023 a 3.8263819,5.0387054 0 0 0 1.919883,9.4049 3.8263819,5.0387054 0 0 0 1.919962,-9.4049 v -4.50023 l 5.759734,-7.5846 v -4.5001 a 3.8263819,5.0387054 0 0 0 -1.919962,-9.40491 z m -11.519455,8.09018 c -1.267114,0 -2.303906,-1.3905 -2.303906,-3.03384 0,-1.64334 1.05602,-3.03384 2.303906,-3.03384 1.247938,0 2.303888,1.3905 2.303888,3.03384 0,1.64334 -1.05595,3.03384 -2.303888,3.03384 z m 5.759721,25.28207 c -1.267102,0 -2.303886,-1.39059 -2.303886,-3.03383 0,-1.64334 1.05601,-3.03385 2.303886,-3.03385 1.247957,0 2.303888,1.39051 2.303888,3.03385 0,1.64324 -1.055931,3.03383 -2.303888,3.03383 z m 5.759734,-25.28207 c -1.267095,0 -2.303889,-1.3905 -2.303889,-3.03384 0,-1.64334 1.05601,-3.03384 2.303889,-3.03384 1.247946,0 2.303887,1.3905 2.303887,3.03384 0,1.64334 -1.055941,3.03384 -2.303887,3.03384 z"
           style="fill:#aa8800;fill-opacity:1;fill-rule:evenodd;stroke-width:0.2645832"
           inkscape:connector-curvature="0" />
      </g>
    </g>
  </g>
</svg>
