<?xml version="1.0" encoding="UTF-8" standalone="no"?>

<svg
   xmlns:dc="http://purl.org/dc/elements/1.1/"
   xmlns:cc="http://creativecommons.org/ns#"
   xmlns:rdf="http://www.w3.org/1999/02/22-rdf-syntax-ns#"
   xmlns:svg="http://www.w3.org/2000/svg"
   xmlns="http://www.w3.org/2000/svg"
   xmlns:sodipodi="http://sodipodi.sourceforge.net/DTD/sodipodi-0.dtd"
   xmlns:inkscape="http://www.inkscape.org/namespaces/inkscape"
   version="1.1"
   id="Layer_1"
   x="0px"
   y="0px"
   width="306px"
   height="344.35px"
   viewBox="0 0 306 344.35"
   enable-background="new 0 0 306 344.35"
   xml:space="preserve"
   sodipodi:docname="rsapp.svg"
   inkscape:version="0.92.3 (2405546, 2018-03-11)"
   inkscape:export-filename="rsapp.png"
   inkscape:export-xdpi="640"
   inkscape:export-ydpi="640"><metadata
   id="metadata25"><rdf:RDF><cc:Work
       rdf:about=""><dc:format>image/svg+xml</dc:format><dc:type
         rdf:resource="http://purl.org/dc/dcmitype/StillImage" /><dc:title></dc:title><cc:license
         rdf:resource="http://creativecommons.org/licenses/by-nc-nd/4.0/" /></cc:Work><cc:License
       rdf:about="http://creativecommons.org/licenses/by-nc-nd/4.0/"><cc:permits
         rdf:resource="http://creativecommons.org/ns#Reproduction" /><cc:permits
         rdf:resource="http://creativecommons.org/ns#Distribution" /><cc:requires
         rdf:resource="http://creativecommons.org/ns#Notice" /><cc:requires
         rdf:resource="http://creativecommons.org/ns#Attribution" /><cc:prohibits
         rdf:resource="http://creativecommons.org/ns#CommercialUse" /></cc:License></rdf:RDF></metadata><defs
   id="defs23" /><sodipodi:namedview
   pagecolor="#ffffff"
   bordercolor="#666666"
   borderopacity="1"
   objecttolerance="10"
   gridtolerance="10"
   guidetolerance="10"
   inkscape:pageopacity="0"
   inkscape:pageshadow="2"
   inkscape:window-width="1920"
   inkscape:window-height="1001"
   id="namedview21"
   showgrid="false"
   inkscape:zoom="1.9384603"
   inkscape:cx="-71.633448"
   inkscape:cy="179.89379"
   inkscape:window-x="-9"
   inkscape:window-y="-9"
   inkscape:window-maximized="1"
   inkscape:current-layer="Layer_1" />






<g
   transform="matrix(3.7795276,0,0,3.7795276,-400.30149,-498.29587)"
   id="g874"><path
     id="path2"
     d="m 185.76581,200.13921 c 0.63527,-1.1004 1.03002,-2.34024 1.03002,-3.4536 v -38.64742 c 0,-1.11337 -0.39423,-2.35294 -1.02975,-3.45335 l -39.4515,22.77719 z"
     style="fill:#ff0000;stroke-width:0.26458332"
     inkscape:connector-curvature="0" /><path
     id="path4"
     d="M 149.82031,222.08137 183.2901,202.7578 c 0.96415,-0.55669 1.84045,-1.51792 2.47571,-2.61859 l -39.45123,-22.77718 -39.45122,22.77745 c 0.63526,1.1004 1.51183,2.0619 2.4757,2.61832 l 33.46979,19.32357 c 1.92802,1.11337 5.08344,1.11337 7.01146,0 z"
     style="fill:#800000;stroke-width:0.26458332"
     inkscape:connector-curvature="0" /><path
     id="path6"
     d="m 185.76608,154.58458 c -0.63553,-1.10067 -1.5121,-2.0619 -2.47598,-2.61858 l -33.46979,-19.32358 c -1.92802,-1.11337 -5.08344,-1.11337 -7.01146,0 L 109.33906,151.966 c -1.92828,1.1131 -3.50573,3.84572 -3.50573,6.07219 v 38.64742 c 0,1.11336 0.3945,2.3532 1.03003,3.4536 l 39.45122,-22.77718 z"
     style="fill:#ff5555;stroke-width:0.26458332"
     inkscape:connector-curvature="0" /><g
     transform="matrix(0.26458333,0,0,0.26458333,105.83333,131.80739)"
     id="g18"><polygon
       id="polygon16"
       points="286.166,189.175 286.166,177.841 297.5,177.841 297.5,166.508 286.166,166.508 286.166,155.175 274.834,155.175 274.834,166.508 263.5,166.508 263.5,177.841 274.834,177.841 274.834,189.175 "
       style="fill:#ffffff" /></g><flowRoot
     xml:space="preserve"
     id="flowRoot922"
     style="font-style:normal;font-variant:normal;font-weight:normal;font-stretch:normal;font-size:40px;line-height:1.25;font-family:VT323;-inkscape-font-specification:'VT323, Normal';font-variant-ligatures:normal;font-variant-caps:normal;font-variant-numeric:normal;font-feature-settings:normal;text-align:start;letter-spacing:0px;word-spacing:0px;writing-mode:lr-tb;text-anchor:start;fill:#ffffff;fill-opacity:1;stroke:none;stroke-width:0.39106601"
     transform="matrix(1.2230575,0,0,0.37426392,-432.83796,-83.002846)"><flowRegion
       id="flowRegion924"
       style="font-style:normal;font-variant:normal;font-weight:normal;font-stretch:normal;font-size:40px;font-family:VT323;-inkscape-font-specification:'VT323, Normal';font-variant-ligatures:normal;font-variant-caps:normal;font-variant-numeric:normal;font-feature-settings:normal;text-align:start;writing-mode:lr-tb;text-anchor:start;fill:#ffffff;stroke-width:0.15138362"><rect
         id="rect926"
         width="210"
         height="50"
         x="450"
         y="732.51971"
         style="font-style:normal;font-variant:normal;font-weight:normal;font-stretch:normal;font-size:40px;font-family:VT323;-inkscape-font-specification:'VT323, Normal';font-variant-ligatures:normal;font-variant-caps:normal;font-variant-numeric:normal;font-feature-settings:normal;text-align:start;writing-mode:lr-tb;text-anchor:start;fill:#ffffff;stroke-width:0.39106601" /></flowRegion><flowPara
       id="flowPara928"
       style="font-style:normal;font-variant:normal;font-weight:normal;font-stretch:normal;font-size:40px;font-family:VT323;-inkscape-font-specification:'VT323, Normal';font-variant-ligatures:normal;font-variant-caps:normal;font-variant-numeric:normal;font-feature-settings:normal;text-align:start;writing-mode:lr-tb;text-anchor:start;fill:#ffffff;stroke-width:0.15138362">RSA</flowPara></flowRoot><path
     id="path2-9"
     d="m 106.86336,200.18551 c -0.63527,-1.1004 -1.03002,-2.34024 -1.03002,-3.4536 v -38.64742 c 0,-1.11337 0.39423,-2.35294 1.02975,-3.45335 l 39.45149,22.77719 z"
     style="fill:#ff0000;stroke-width:0.26458332"
     inkscape:connector-curvature="0" /></g><g
   transform="translate(-210.30175,-0.12620669)"
   id="g14"><polygon
     id="polygon12"
     points="221,177.841 232.334,177.841 232.334,189.175 243.666,189.175 243.666,177.841 255,177.841 255,166.508 243.666,166.508 243.666,155.175 232.334,155.175 232.334,166.508 221,166.508 "
     style="fill:#ffffff" /></g></svg>