<?xml version="1.0" encoding="UTF-8" standalone="no"?>
<svg
   xmlns:dc="http://purl.org/dc/elements/1.1/"
   xmlns:cc="http://creativecommons.org/ns#"
   xmlns:rdf="http://www.w3.org/1999/02/22-rdf-syntax-ns#"
   xmlns:svg="http://www.w3.org/2000/svg"
   xmlns="http://www.w3.org/2000/svg"
   xmlns:sodipodi="http://sodipodi.sourceforge.net/DTD/sodipodi-0.dtd"
   xmlns:inkscape="http://www.inkscape.org/namespaces/inkscape"
   width="176"
   height="20"
   version="1.1"
   id="svg28"
   sodipodi:docname="wip.svg"
   inkscape:version="0.92.3 (2405546, 2018-03-11)">
  <metadata
     id="metadata34">
    <rdf:RDF>
      <cc:Work
         rdf:about="">
        <dc:format>image/svg+xml</dc:format>
        <dc:type
           rdf:resource="http://purl.org/dc/dcmitype/StillImage" />
      </cc:Work>
    </rdf:RDF>
  </metadata>
  <defs
     id="defs32" />
  <sodipodi:namedview
     pagecolor="#ffffff"
     bordercolor="#666666"
     borderopacity="1"
     objecttolerance="10"
     gridtolerance="10"
     guidetolerance="10"
     inkscape:pageopacity="0"
     inkscape:pageshadow="2"
     inkscape:window-width="1920"
     inkscape:window-height="1001"
     id="namedview30"
     showgrid="true"
     inkscape:zoom="3.8522727"
     inkscape:cx="170.40743"
     inkscape:cy="10.618673"
     inkscape:window-x="-9"
     inkscape:window-y="-9"
     inkscape:window-maximized="1"
     inkscape:current-layer="layer2">
    <inkscape:grid
       type="xygrid"
       id="grid1962" />
  </sodipodi:namedview>
  <linearGradient
     id="b"
     x2="0"
     y2="100%">
    <stop
       offset="0"
       stop-color="#bbb"
       stop-opacity=".1"
       id="stop2" />
    <stop
       offset="1"
       stop-opacity=".1"
       id="stop4" />
  </linearGradient>
  <mask
     id="a">
    <rect
       width="176"
       height="20"
       rx="3"
       fill="#fff"
       id="rect7" />
  </mask>
  <g
     mask="url(#a)"
     id="g16"
     style="fill:#000000">
    <path
       d="M0 0h155v20H0z"
       id="path10"
       style="fill:#000000;fill-opacity:1"
       fill="#555" />
    <path
       d="M155 0h21v20h-21z"
       id="path12"
       fill="#e05d44"
       style="fill:#000000;fill-opacity:1" />
  </g>
  <g
     fill="#fff"
     text-anchor="middle"
     font-family="DejaVu Sans,Verdana,Geneva,sans-serif"
     font-size="11"
     id="g26">
    <text
       x="48.892475"
       y="18.958691"
       id="text20"
       transform="scale(1.6254417,0.61521738)"
       style="font-size:17.87985992px;stroke-width:0.99999988">
      <tspan
         style="font-style:normal;font-variant:normal;font-weight:normal;font-stretch:normal;font-size:9.33333302px;font-family:'Roboto Mono';-inkscape-font-specification:'Roboto Mono, Normal';font-variant-ligatures:normal;font-variant-caps:normal;font-variant-numeric:normal;font-feature-settings:normal;text-align:center;writing-mode:lr-tb;text-anchor:middle;stroke-width:1.19968522"
         id="tspan10148">Work In Progress</tspan>
    </text>
    <text
       x="163.73431"
       y="14.825605"
       id="text22"
       style="fill:#010101;fill-opacity:0.3">✕</text>
  </g>
  <g
     inkscape:groupmode="layer"
     id="layer2"
     inkscape:label="Layer 1">
    <g
       id="g10155"
       transform="translate(-22.82616,0.298023)">
      <path
         style="fill:#ffff02;stroke:#ffff02;stroke-width:0.125"
         inkscape:connector-curvature="0"
         id="path8"
         d="m 185.0063,1.503341 c 0.54657,-0.540361 1.3478,-0.86333499 2.11797,-0.72669199 0.60247,0.04348 1.14904,0.37266299 1.56518,0.78880199 2.13039,2.1366 4.26699,4.266989 6.39738,6.403589 0.20496,0.273286 0.44719,0.540361 0.55278,0.875757 0.19254,0.422351 0.18633,0.906813 0.13043,1.360219 -0.0559,0.527939 -0.39129,0.956501 -0.7329,1.335375 -2.21734,2.211133 -4.43469,4.428476 -6.64582,6.645819 -0.16149,0.142854 -0.36024,0.217387 -0.54657,0.316764 -0.31055,0.186331 -0.68943,0.173909 -1.03104,0.254652 -0.30434,-0.06832 -0.61489,-0.08074 -0.90681,-0.192542 -0.24223,-0.124221 -0.50309,-0.217387 -0.70185,-0.409929 -2.14281,-2.149021 -4.28562,-4.285622 -6.42843,-6.428433 -0.21739,-0.198752 -0.3913,-0.440983 -0.58384,-0.670793 -0.38509,-0.534149 -0.42235,-1.2235747 -0.32919,-1.850891 0.1118,-0.484462 0.3913,-0.900601 0.70806,-1.273264 2.14903,-2.142811 4.28563,-4.285622 6.43465,-6.428433 z" />
      <path
         style="fill:#010102;stroke:#010102;stroke-width:0.125"
         inkscape:connector-curvature="0"
         id="path10-4"
         d="m 187.08079,5.267235 c 0.2795,-0.04969 0.60247,-0.01242 0.80744,0.198754 0.2298,0.204963 0.37887,0.54036 0.29192,0.844702 -0.031,0.329185 -0.31677,0.583838 -0.62111,0.664582 -0.55278,0.192542 -1.22358,-0.341608 -1.1242,-0.931658 0.0683,-0.341607 0.31676,-0.652159 0.64595,-0.77638 z" />
      <path
         style="fill:#010102;stroke:#010102;stroke-width:0.125"
         inkscape:connector-curvature="0"
         id="path12-0"
         d="m 183.15541,7.217503 c 0.0621,-0.217386 0.13664,-0.453406 0.34782,-0.571416 0.65216,0.0062 1.29811,0.0062 1.94406,0.0062 0.13043,-0.0062 0.25465,0.02484 0.37887,0.04969 0.25465,0.40993 0.5652,0.782593 0.83228,1.18631 0.13664,0.204964 0.26707,0.465828 0.14285,0.708059 -0.36024,0.664582 -0.7329,1.3229533 -1.08693,1.993746 0.81365,0.59626 1.56518,1.267053 2.37883,1.857103 C 188.32921,12.192542 188.62734,11.913044 189,12 c 0.13665,0.04969 0.29813,0.06832 0.39751,0.18012 0.13043,0.142854 0.24223,0.304341 0.32919,0.47825 0.13043,-0.06211 0.29813,-0.08696 0.42856,-0.01242 0.2236,0.142854 0.33539,0.41614 0.3416,0.670793 0.13665,0.06211 0.24845,0.149064 0.32298,0.273285 0.34782,-0.02485 0.61489,0.22981 0.75154,0.521729 -1.54655,0.01242 -3.08689,-0.0062 -4.63344,0.01863 -0.37888,-0.03727 -0.76396,0.03105 -1.14905,-0.02485 0.0807,-0.09317 0.14907,-0.198754 0.21739,-0.304341 0.18012,-0.08074 0.36645,-0.167699 0.57141,-0.167699 0.10559,-0.02484 0.21118,-0.06211 0.16149,-0.198753 0.10559,-0.161487 0.24223,-0.341607 0.46583,-0.298131 0.11801,-0.236019 0.31055,-0.42235 0.54036,-0.552782 -0.69564,-0.571416 -1.39748,-1.130411 -2.09312,-1.701827 -0.031,-0.08074 -0.13664,-0.02484 -0.1118,0.03726 0.15528,0.167699 0.3354,0.35403 0.32298,0.596261 0.0124,0.155275 -0.0994,0.285707 -0.15528,0.422351 -0.18012,0.428563 -0.44099,0.826069 -0.64595,1.242209 -0.12422,0.260864 -0.26086,0.521728 -0.40993,0.77017 -0.16149,0.124221 -0.40372,0.211175 -0.60247,0.118009 -0.12422,-0.09316 -0.19875,-0.23602 -0.24223,-0.378873 0.12422,-0.453407 0.3913,-0.838492 0.5652,-1.273264 0.13665,-0.298131 0.29192,-0.59005 0.43478,-0.881969 -0.36645,-0.453407 -0.7267,-0.913024 -1.11178,-1.354009 -0.006,0.459619 0.0186,0.925447 -0.006,1.385064 -0.18012,0.720482 -0.37887,1.440963 -0.56521,2.167655 -0.0559,0.304341 -0.47825,0.47204 -0.72669,0.267075 -0.2236,-0.118009 -0.17391,-0.397507 -0.16149,-0.608682 0.14286,-0.583839 0.29192,-1.161466 0.43478,-1.745304 0.0248,-0.695637 -0.0124,-1.391274 0.0186,-2.086911 0,-0.279497 0.28571,-0.385085 0.42235,-0.583839 -0.14908,-0.04969 -0.25466,-0.173905 -0.24845,-0.329181 -0.14286,-0.09938 -0.27329,-0.217387 -0.42856,-0.29813 -0.0621,-0.130432 0.0248,-0.23602 0.14285,-0.279497 0.10559,0.09938 0.2236,0.186331 0.34161,0.260864 0.0807,-0.366452 0.14906,-0.739115 0.23602,-1.111777 z" />
      <path
         style="fill:#ffff02;stroke:#ffff02;stroke-width:0.125"
         inkscape:connector-curvature="0"
         id="path14"
         d="m 183.89452,7.559111 c 0.2236,0.0062 0.44099,0.0062 0.65837,0.0062 -0.26707,0.285708 -0.57141,0.540361 -0.82606,0.838491 0.031,-0.285708 0.11179,-0.558994 0.16769,-0.844702 z" />
      <path
         style="fill:#ffff02;stroke:#ffff02;stroke-width:0.125"
         inkscape:connector-curvature="0"
         id="path16"
         d="m 184.49699,9.590123 c 0.34161,-0.155276 0.68322,-0.29813 1.02483,-0.453407 -0.12422,0.316764 -0.3354,0.577627 -0.45962,0.88818 -0.19875,-0.1366427 -0.3913,-0.273286 -0.56521,-0.434773 z" />
    </g>
    <rect
       style="fill:#ffff00;stroke-width:0.22626263"
       transform="matrix(1,0,0.577833,-0.81615502,0,0)"
       y="-5.3306398"
       x="19"
       height="5.3306398"
       width="3.5347412"
       id="rect1990" />
    <rect
       id="rect2216"
       width="3.5347412"
       height="5.3306398"
       x="27"
       y="-5.3306398"
       transform="matrix(1,0,0.577833,-0.81615502,0,0)"
       style="fill:#ffff00;stroke-width:0.22626263" />
    <rect
       style="fill:#ffff00;stroke-width:0.22626263"
       transform="matrix(1,0,0.577833,-0.81615502,0,0)"
       y="-5.3306398"
       x="35"
       height="5.3306398"
       width="3.5347412"
       id="rect2758" />
    <rect
       style="fill:#ffff00;stroke-width:0.22626263"
       transform="matrix(1,0,0.577833,-0.81615502,0,0)"
       y="-5.3306398"
       x="11"
       height="5.3306398"
       width="3.5347412"
       id="rect3174" />
    <rect
       id="rect2996-7"
       width="3.5347412"
       height="5.3306398"
       x="43"
       y="-5.3306398"
       transform="matrix(1,0,0.577833,-0.81615502,0,0)"
       style="fill:#ffff00;stroke-width:0.22626263" />
    <rect
       id="rect2996-7-8"
       width="3.5347412"
       height="5.3306398"
       x="51"
       y="-5.3306398"
       transform="matrix(1,0,0.577833,-0.81615502,0,0)"
       style="fill:#ffff00;stroke-width:0.22626263" />
    <rect
       id="rect2996-7-8-9"
       width="3.5347412"
       height="5.3306398"
       x="59"
       y="-5.3306398"
       transform="matrix(1,0,0.577833,-0.81615502,0,0)"
       style="fill:#ffff00;stroke-width:0.22626263" />
    <rect
       id="rect2996-7-8-9-3"
       width="3.5347412"
       height="5.3306398"
       x="67"
       y="-5.3306398"
       transform="matrix(1,0,0.577833,-0.81615502,0,0)"
       style="fill:#ffff00;stroke-width:0.22626263" />
    <rect
       id="rect2996-7-8-9-3-1"
       width="3.5347412"
       height="5.3306398"
       x="75"
       y="-5.3306398"
       transform="matrix(1,0,0.577833,-0.81615502,0,0)"
       style="fill:#ffff00;stroke-width:0.22626263" />
    <rect
       id="rect2996-7-8-9-3-1-5"
       width="3.5347412"
       height="5.3306398"
       x="83"
       y="-5.3306398"
       transform="matrix(1,0,0.577833,-0.81615502,0,0)"
       style="fill:#ffff00;stroke-width:0.22626263" />
    <rect
       id="rect2996-7-8-9-3-1-5-8"
       width="3.5347412"
       height="5.3306398"
       x="91"
       y="-5.3306398"
       transform="matrix(1,0,0.577833,-0.81615502,0,0)"
       style="fill:#ffff00;stroke-width:0.22626263" />
    <rect
       id="rect2996-7-8-9-3-1-5-8-8"
       width="3.5347412"
       height="5.3306398"
       x="99"
       y="-5.3306398"
       transform="matrix(1,0,0.577833,-0.81615502,0,0)"
       style="fill:#ffff00;stroke-width:0.22626263" />
    <rect
       id="rect2996-7-8-9-3-1-5-8-8-8"
       width="3.5347412"
       height="5.3306398"
       x="107"
       y="-5.3306398"
       transform="matrix(1,0,0.577833,-0.81615502,0,0)"
       style="fill:#ffff00;stroke-width:0.22626263" />
    <rect
       id="rect2996-7-8-9-3-1-5-8-8-8-6"
       width="3.5347412"
       height="5.3306398"
       x="115"
       y="-5.3306398"
       transform="matrix(1,0,0.577833,-0.81615502,0,0)"
       style="fill:#ffff00;stroke-width:0.22626263" />
    <rect
       id="rect2996-7-8-9-3-1-5-8-8-8-6-9"
       width="3.5347412"
       height="5.3306398"
       x="123"
       y="-5.3306398"
       transform="matrix(1,0,0.577833,-0.81615502,0,0)"
       style="fill:#ffff00;stroke-width:0.22626263" />
    <rect
       id="rect2996-7-8-9-3-1-5-8-8-8-6-9-5"
       width="3.5347412"
       height="5.3306398"
       x="131"
       y="-5.3306398"
       transform="matrix(1,0,0.577833,-0.81615502,0,0)"
       style="fill:#ffff00;stroke-width:0.22626263" />
    <rect
       id="rect2996-7-8-9-3-1-5-8-8-8-6-9-5-4"
       width="3.5347412"
       height="5.3306398"
       x="139"
       y="-5.3306398"
       transform="matrix(1,0,0.577833,-0.81615502,0,0)"
       style="fill:#ffff00;stroke-width:0.22626263" />
    <rect
       id="rect2996-7-8-9-3-1-5-8-8-8-6-9-5-4-6"
       width="3.5347412"
       height="5.3306398"
       x="147"
       y="-5.3306398"
       transform="matrix(1,0,0.577833,-0.81615502,0,0)"
       style="fill:#ffff00;stroke-width:0.22626263" />
    <rect
       id="rect2996-7-8-9-3-1-5-8-8-8-6-9-5-4-6-8"
       width="3.5347412"
       height="5.3306398"
       x="155"
       y="-5.3306398"
       transform="matrix(1,0,0.577833,-0.81615502,0,0)"
       style="fill:#ffff00;stroke-width:0.22626263" />
    <rect
       id="rect2996-7-8-9-3-1-5-8-8-8-6-9-5-4-6-8-9"
       width="3.5347412"
       height="5.3306398"
       x="183.62514"
       y="-24.505148"
       transform="matrix(1,0,0.577833,-0.81615502,0,0)"
       style="fill:#ffff00;stroke-width:0.22626263" />
    <rect
       style="fill:#ffff00;stroke-width:0.22626263"
       transform="matrix(1,0,0.577833,-0.81615502,0,0)"
       y="-5.3306398"
       x="3"
       height="5.3306398"
       width="3.5347412"
       id="rect3174-4" />
    <rect
       style="fill:#ffff00;stroke-width:0.22626263"
       transform="matrix(1,0,0.577833,0.81615502,0,0)"
       y="19.174509"
       x="4.840116"
       height="5.3306398"
       width="3.5347412"
       id="rect1990-6" />
    <rect
       id="rect2216-6"
       width="3.5347412"
       height="5.3306398"
       x="12.840117"
       y="19.174509"
       transform="matrix(1,0,0.577833,0.81615502,0,0)"
       style="fill:#ffff00;stroke-width:0.22626263" />
    <rect
       style="fill:#ffff00;stroke-width:0.22626263"
       transform="matrix(1,0,0.577833,0.81615502,0,0)"
       y="19.174509"
       x="20.840117"
       height="5.3306398"
       width="3.5347412"
       id="rect2758-9" />
    <rect
       style="fill:#ffff00;stroke-width:0.22626263"
       transform="matrix(1,0,0.577833,0.81615502,0,0)"
       y="19.174509"
       x="-3.159884"
       height="5.3306398"
       width="3.5347412"
       id="rect3174-8" />
    <rect
       id="rect2996-7-9"
       width="3.5347412"
       height="5.3306398"
       x="28.840117"
       y="19.174509"
       transform="matrix(1,0,0.577833,0.81615502,0,0)"
       style="fill:#ffff00;stroke-width:0.22626263" />
    <rect
       id="rect2996-7-8-0"
       width="3.5347412"
       height="5.3306398"
       x="36.840118"
       y="19.174509"
       transform="matrix(1,0,0.577833,0.81615502,0,0)"
       style="fill:#ffff00;stroke-width:0.22626263" />
    <rect
       id="rect2996-7-8-9-2"
       width="3.5347412"
       height="5.3306398"
       x="44.840134"
       y="19.174509"
       transform="matrix(1,0,0.577833,0.81615502,0,0)"
       style="fill:#ffff00;stroke-width:0.22626263" />
    <rect
       id="rect2996-7-8-9-3-0"
       width="3.5347412"
       height="5.3306398"
       x="52.840134"
       y="19.174509"
       transform="matrix(1,0,0.577833,0.81615502,0,0)"
       style="fill:#ffff00;stroke-width:0.22626263" />
    <rect
       id="rect2996-7-8-9-3-1-3"
       width="3.5347412"
       height="5.3306398"
       x="60.840134"
       y="19.174509"
       transform="matrix(1,0,0.577833,0.81615502,0,0)"
       style="fill:#ffff00;stroke-width:0.22626263" />
    <rect
       id="rect2996-7-8-9-3-1-5-1"
       width="3.5347412"
       height="5.3306398"
       x="68.840134"
       y="19.174509"
       transform="matrix(1,0,0.577833,0.81615502,0,0)"
       style="fill:#ffff00;stroke-width:0.22626263" />
    <rect
       id="rect2996-7-8-9-3-1-5-8-7"
       width="3.5347412"
       height="5.3306398"
       x="76.840134"
       y="19.174509"
       transform="matrix(1,0,0.577833,0.81615502,0,0)"
       style="fill:#ffff00;stroke-width:0.22626263" />
    <rect
       id="rect2996-7-8-9-3-1-5-8-8-84"
       width="3.5347412"
       height="5.3306398"
       x="84.840134"
       y="19.174509"
       transform="matrix(1,0,0.577833,0.81615502,0,0)"
       style="fill:#ffff00;stroke-width:0.22626263" />
    <rect
       id="rect2996-7-8-9-3-1-5-8-8-8-7"
       width="3.5347412"
       height="5.3306398"
       x="92.840134"
       y="19.174509"
       transform="matrix(1,0,0.577833,0.81615502,0,0)"
       style="fill:#ffff00;stroke-width:0.22626263" />
    <rect
       id="rect2996-7-8-9-3-1-5-8-8-8-6-1"
       width="3.5347412"
       height="5.3306398"
       x="100.84013"
       y="19.174509"
       transform="matrix(1,0,0.577833,0.81615502,0,0)"
       style="fill:#ffff00;stroke-width:0.22626263" />
    <rect
       id="rect2996-7-8-9-3-1-5-8-8-8-6-9-2"
       width="3.5347412"
       height="5.3306398"
       x="108.84013"
       y="19.174509"
       transform="matrix(1,0,0.577833,0.81615502,0,0)"
       style="fill:#ffff00;stroke-width:0.22626263" />
    <rect
       id="rect2996-7-8-9-3-1-5-8-8-8-6-9-5-47"
       width="3.5347412"
       height="5.3306398"
       x="116.84012"
       y="19.174509"
       transform="matrix(1,0,0.577833,0.81615502,0,0)"
       style="fill:#ffff00;stroke-width:0.22626263" />
    <rect
       id="rect2996-7-8-9-3-1-5-8-8-8-6-9-5-4-9"
       width="3.5347412"
       height="5.3306398"
       x="124.84012"
       y="19.174509"
       transform="matrix(1,0,0.577833,0.81615502,0,0)"
       style="fill:#ffff00;stroke-width:0.22626263" />
    <rect
       id="rect2996-7-8-9-3-1-5-8-8-8-6-9-5-4-6-1"
       width="3.5347412"
       height="5.3306398"
       x="132.8401"
       y="19.174509"
       transform="matrix(1,0,0.577833,0.81615502,0,0)"
       style="fill:#ffff00;stroke-width:0.22626263" />
    <rect
       id="rect2996-7-8-9-3-1-5-8-8-8-6-9-5-4-6-8-2"
       width="3.5347412"
       height="5.3306398"
       x="140.8401"
       y="19.174509"
       transform="matrix(1,0,0.577833,0.81615502,0,0)"
       style="fill:#ffff00;stroke-width:0.22626263" />
    <rect
       style="fill:#ffff00;stroke-width:0.22626263"
       transform="matrix(1,0,0.577833,0.81615502,0,0)"
       y="19.174509"
       x="-11.159883"
       height="5.3306398"
       width="3.5347412"
       id="rect3174-4-8" />
    <rect
       id="rect2996-7-8-9-3-1-5-8-8-8-6-9-5-4-6-8-9-8"
       width="3.5347412"
       height="5.3306398"
       x="169.46526"
       y="-1.6153669e-015"
       transform="matrix(1,0,0.577833,0.81615502,0,0)"
       style="fill:#ffff00;stroke-width:0.22626263" />
  </g>
</svg>
